<svg xmlns="http://www.w3.org/2000/svg"  viewBox="0 0 100 100" width="100px" height="100px"><path fill-opacity=".3" d="M59.5,99.5c-0.499,0-0.995-0.059-1.515-0.181L26.167,91H21c-3.584,0-6.5-2.916-6.5-6.5v-67	c0-3.584,2.916-6.5,6.5-6.5h5.167l31.688-8.287c0.52-0.14,1.082-0.213,1.646-0.213c1.408,0,2.804,0.468,3.93,1.318l0.124,0.096	C65.109,5.165,66,7.019,66,9v2h12c3.584,0,6.5,2.916,6.5,6.5v67c0,3.584-2.916,6.5-6.5,6.5H66v2c0,1.981-0.891,3.835-2.445,5.086	l-0.167,0.128C62.248,99.056,60.903,99.5,59.5,99.5z"/><path fill="#f2f2f2" d="M57.5,97.5c-0.499,0-0.995-0.059-1.515-0.181L24.167,89H19c-3.584,0-6.5-2.916-6.5-6.5v-67	c0-3.584,2.916-6.5,6.5-6.5h5.167l31.688-8.287c0.52-0.14,1.082-0.213,1.646-0.213c1.408,0,2.804,0.468,3.93,1.318l0.124,0.096	C63.109,3.165,64,5.019,64,7v2h12c3.584,0,6.5,2.916,6.5,6.5v67c0,3.584-2.916,6.5-6.5,6.5H64v2c0,1.981-0.891,3.835-2.445,5.086	l-0.167,0.128C60.248,97.056,58.903,97.5,57.5,97.5z"/><rect width="22" height="67" x="54" y="15.5" fill="#d47f56"/><rect width="17" height="61.5" x="54" y="21" fill="#707cc0"/><rect width="7" height="67" x="54" y="15.5" fill="#40396e" opacity=".35"/><polygon fill="#ffb789" points="56,90.608 25,82.5 25,15.5 56,7.392"/><path fill="#40396e" d="M48.5,55L48.5,55c1.381,0,2.5-1.119,2.5-2.5v-7c0-1.381-1.119-2.5-2.5-2.5h0	c-1.381,0-2.5,1.119-2.5,2.5v7C46,53.881,47.119,55,48.5,55z"/><rect width="6" height="67" x="19" y="15.5" fill="#d47f56"/><path fill="#40396e" d="M57.5,92.5c-0.127,0-0.254-0.016-0.379-0.049L24.807,84H19c-0.829,0-1.5-0.672-1.5-1.5v-67	c0-0.828,0.671-1.5,1.5-1.5h5.807l32.313-8.451c0.448-0.118,0.929-0.021,1.296,0.264C58.785,6.097,59,6.535,59,7v7h17	c0.829,0,1.5,0.672,1.5,1.5v67c0,0.828-0.671,1.5-1.5,1.5H59v7c0,0.465-0.215,0.903-0.583,1.188	C58.151,92.393,57.828,92.5,57.5,92.5z M20.5,81H25c0.128,0,0.256,0.017,0.379,0.049L56,89.058V82.5c0-0.828,0.671-1.5,1.5-1.5h17	V17h-17c-0.829,0-1.5-0.672-1.5-1.5V8.942l-30.621,8.009C25.256,16.983,25.128,17,25,17h-4.5V81z"/></svg>