<svg xmlns="http://www.w3.org/2000/svg"  viewBox="0 0 100 100" width="100px" height="100px" baseProfile="basic"><path d="M54.506,100.006c-1.689,0-3.29-0.645-4.508-1.817c-1.607-1.55-2.304-3.777-1.865-5.96l0.047-0.236H18.459 c-3.584,0-6.5-2.916-6.5-6.5c0-8.322,5.219-15.809,13.009-18.698l3.116-1.402c-1.78-2.639-2.719-5.848-2.531-9.223l0.223-4.431 c-0.407-0.35-0.795-0.734-1.16-1.153c-3.81-4.359-5.267-12.472-1.269-17.142c0.493-0.577,1.062-1.085,1.688-1.517 c-0.052-0.82-0.076-1.636-0.076-2.486c0-15.067,11.178-26.43,26-26.43s26,11.362,26,26.43c0,0.847-0.024,1.661-0.076,2.479 c0.632,0.433,1.207,0.943,1.703,1.521c3.998,4.678,2.54,12.789-1.266,17.145c-0.371,0.424-0.764,0.813-1.178,1.167 c0,0,0.233,4.636,0.236,4.731c0.208-0.02,0.417-0.03,0.629-0.03c1.736,0,3.369,0.677,4.597,1.905l8.636,8.637 c2.53,2.53,2.534,6.65,0.008,9.185l-1.767,1.774c0.973,2.379,1.478,4.93,1.478,7.538c0,3.584-2.916,6.5-6.5,6.5h-8.962 l-3.182,3.194c-0.85,0.854-1.922,1.455-3.098,1.735l-12.206,2.907C55.53,99.945,55.019,100.006,54.506,100.006z" opacity=".35"/><path fill="#f2f2f2" d="M52.506,98.006c-1.689,0-3.29-0.645-4.508-1.817c-1.607-1.55-2.304-3.777-1.865-5.96l0.047-0.236 H16.459c-3.584,0-6.5-2.916-6.5-6.5c0-8.322,5.219-15.809,13.009-18.698l3.116-1.402c-1.78-2.639-2.719-5.848-2.531-9.223 l0.223-4.431c-0.407-0.35-0.795-0.734-1.16-1.153c-3.81-4.359-5.267-12.472-1.269-17.142c0.493-0.577,1.062-1.085,1.688-1.517 c-0.052-0.82-0.076-1.636-0.076-2.486c0-15.067,11.178-26.43,26-26.43s26,11.362,26,26.43c0,0.847-0.024,1.661-0.076,2.479 c0.632,0.433,1.207,0.943,1.703,1.521c3.998,4.678,2.54,12.789-1.266,17.145c-0.371,0.424-0.764,0.813-1.178,1.167 c0,0,0.233,4.636,0.236,4.731c0.208-0.02,0.417-0.03,0.629-0.03c1.736,0,3.369,0.677,4.597,1.905l8.636,8.637 c2.53,2.53,2.534,6.65,0.008,9.185l-1.767,1.774c0.973,2.379,1.478,4.93,1.478,7.538c0,3.584-2.916,6.5-6.5,6.5h-8.962 l-3.182,3.194c-0.85,0.854-1.922,1.455-3.098,1.735l-12.206,2.907C53.53,97.945,53.019,98.006,52.506,98.006z"/><path fill="#40396e" d="M59.388,65.002H38.53c-5.741,0-10.303-4.823-9.985-10.555l0.414-8.221h40l0.414,8.221 C69.691,60.179,65.129,65.002,59.388,65.002z"/><path fill="#ffc7a3" d="M72.504,70.821l-14.545-5.819v-7c3.73-3.02,5.864-7.036,7.619-12.386 c1.469,1.375,3.98,0.863,5.875-1.306c2.061-2.359,2.609-5.779,1.225-7.638c-1.106-1.485-3.112-1.521-4.924-0.273 c0.504-3.247,0.206-6.343,0.206-8.958c0-12.112-8.216-19.43-19-19.43s-19,7.318-19,19.43c0,2.662-0.21,5.823,0.421,9.134 c-0.421-1.573-2.99-1.456-4.146,0.096c-1.385,1.859-0.836,5.278,1.225,7.638c2.061,2.359,3.834,2.765,5.218,0.906 c0.006-0.007,0.01-0.016,0.015-0.024c1.825,5.172,3.916,9.674,7.266,12.81v7l-14.545,5.819 c-5.367,1.901-8.955,6.977-8.955,12.672v0h65v0C81.459,77.799,77.871,72.722,72.504,70.821z"/><path fill="#40396e" d="M31.779,36.081c0,0,0.809-3.183,0.868-7.079c0,0,21.413,3.803,24.312-17.5c0,0,0-3-8-3.5 c-10.03-0.627-19.473,9.5-19.473,17.5S31.779,36.081,31.779,36.081z"/><path fill="#40396e" d="M65.959,25.901c-2.039,4.668,0.371,10.567,0.371,10.567l1.77-2.427l0.401-8.14 C68.5,25.901,66.381,24.936,65.959,25.901z"/><path fill="#40396e" d="M54.959,10.715c0,0-3.59,16.354,12.5,19.287l1.473-2l-1.973-7l-4.5-9.5l-5-1.5L54.959,10.715z"/><path fill="#40396e" d="M38.824,55.378c0,0,5.758,3.624,10.135,3.624s9.787-3.388,9.787-3.388l-1.31,0.759 c0,0-2.082,6.629-8.477,6.629c-6.343,0-8.547-6.691-8.547-6.691L38.824,55.378z" opacity=".35"/><path fill="#ff7575" d="M72.504,70.821l-13.648-5.46c-0.665,4.878-4.836,8.641-9.897,8.641s-9.232-3.763-9.897-8.641 l-13.648,5.46c-5.367,1.901-8.955,6.977-8.955,12.672v0h65v0C81.459,77.799,77.871,72.722,72.504,70.821z"/><g><rect width="18.366" height="9.424" x="56.613" y="74.09" fill="#f9b84f" transform="rotate(-45.001 65.798 78.804)"/><polygon fill="#fedeb3" points="53.85,90.75 56,81.888 62.711,88.599"/><rect width="3.335" height="9.449" x="71.801" y="66.405" fill="#9aa2e6" transform="rotate(-45.001 73.47 71.131)"/><rect width="6.776" height="9.388" x="73.542" y="62.975" fill="#f4665c" transform="rotate(-45.001 76.932 67.67)"/><polygon fill="#707cc0" points="55.089,85.639 53.85,90.75 58.96,89.51"/><path fill="#40396e" d="M52.506,93.006c-0.384,0-0.758-0.147-1.041-0.42c-0.368-0.355-0.53-0.873-0.43-1.374l1.242-6.219 H16.459c-0.828,0-1.5-0.671-1.5-1.5c0-6.295,3.974-11.938,9.895-14.064l13.105-5.896v-5.171 c-4.722-2.988-6.272-8.266-6.775-11.084c-1.358,0.092-3.249-0.2-4.804-1.98c-2.344-2.683-3.374-8.101-1.234-10.601 c0.646-0.755,1.854-1.471,3.305-1.408c-0.321-2.013-0.491-3.775-0.491-5.847c0-12.417,8.832-21.43,21-21.43s21,9.013,21,21.43 c0,2.067-0.17,3.83-0.491,5.844c1.464-0.045,2.673,0.653,3.322,1.411c2.138,2.501,1.107,7.919-1.235,10.601 c-1.559,1.783-3.454,2.071-4.821,1.98c-0.504,2.825-2.056,8.098-6.774,11.085v5.171l7.12,3.203l6.869-6.844 c0.587-0.584,1.534-0.583,2.119,0.002l8.638,8.638c0.585,0.585,0.586,1.533,0.002,2.119l-4.371,4.388 c1.699,2.479,2.623,5.433,2.623,8.454c0,0.829-0.672,1.5-1.5,1.5H70.421l-4.647,4.665c-0.196,0.197-0.444,0.336-0.715,0.4 l-12.205,2.907C52.738,92.993,52.622,93.006,52.506,93.006z M18.054,81.993h36.053c0.449,0,0.875,0.202,1.16,0.549 c0.284,0.348,0.398,0.804,0.311,1.245l-1.142,5.718l9.514-2.266l4.786-4.805c0.281-0.283,0.664-0.441,1.062-0.441h10.066 c-0.286-2.243-1.207-4.378-2.663-6.132c-0.495-0.595-0.455-1.469,0.091-2.017l4.233-4.25l-6.521-6.521l-6.54,6.516 c-0.44,0.439-1.107,0.56-1.674,0.306l-8.947-4.025c-0.538-0.242-0.885-0.778-0.885-1.368v-7c0-0.552,0.303-1.059,0.789-1.321 c5.423-2.92,6.148-9.982,6.214-10.777c0.05-0.613,0.471-1.157,1.059-1.336c0.33-0.099,0.68-0.084,0.998,0.042 c0.186,0.071,1.984,0.692,3.276-0.787c1.771-2.026,2.055-5.695,1.216-6.677c-0.008-0.007-0.766-0.862-2.065,0.124 c-0.494,0.375-1.17,0.408-1.697,0.081c-0.528-0.327-0.8-0.945-0.684-1.556c0.58-3.045,0.895-5.198,0.895-7.854 c0-10.679-7.57-18.43-18-18.43s-18,7.751-18,18.43c0,2.662,0.314,4.813,0.895,7.853c0.116,0.61-0.155,1.229-0.684,1.556 c-0.529,0.326-1.203,0.295-1.697-0.081c-1.289-0.978-2.017-0.16-2.048-0.123c-0.84,0.981-0.556,4.65,1.215,6.676 c1.289,1.477,3.073,0.859,3.271,0.783c0.312-0.118,0.669-0.135,0.986-0.038c0.588,0.18,1.009,0.724,1.059,1.336 c0.065,0.795,0.791,7.857,6.214,10.777c0.486,0.262,0.789,0.769,0.789,1.321v7c0,0.59-0.347,1.125-0.885,1.368l-14.045,6.319 c-0.037,0.017-0.075,0.033-0.114,0.046C21.633,73.751,18.615,77.566,18.054,81.993z"/></g></svg>