<svg xmlns="http://www.w3.org/2000/svg"  viewBox="0 0 100 100" width="100px" height="100px"><path fill-opacity=".3" d="M50.72,99c-3.664,0-6.838-1.472-8.912-4H33.5c-3.584,0-6.5-2.916-6.5-6.5v-5.982l-6.595,3.795	c-1.512,0.756-3.209,1.155-4.908,1.155c-1.353,0-2.679-0.244-3.94-0.727c-2.901-1.135-5.183-3.422-6.297-6.29	c-2.013-5.227,0.407-11.305,5.504-13.853l10.661-5.826l5.038-12.17c-1.088,0.381-2.246,0.58-3.428,0.58	c-2.845,0-5.587-1.179-7.523-3.234c-1.927-2.041-2.925-4.715-2.808-7.527c0.115-2.808,1.331-5.392,3.425-7.271L27,21.45V11.5	C27,7.916,29.916,5,33.5,5h51c3.584,0,6.5,2.916,6.5,6.5v77c0,3.584-2.916,6.5-6.5,6.5H59.489C57.419,97.527,54.293,99,50.72,99z"/><path fill="#f2f2f2" d="M48.66,96.95c-3.664,0-6.838-1.472-8.912-4H31.44c-3.584,0-6.5-2.916-6.5-6.5v-5.982l-6.595,3.795	c-1.512,0.756-3.209,1.155-4.908,1.155c-1.353,0-2.679-0.244-3.94-0.727c-2.901-1.135-5.183-3.422-6.297-6.29	c-2.013-5.227-0.593-11.305,4.504-13.853l11.661-5.826l5.038-12.17c-1.088,0.381-2.246,0.58-3.428,0.58	c-2.845,0-5.587-1.179-7.523-3.234c-1.927-2.041-2.925-4.715-2.808-7.527c0.115-2.808,1.331-5.392,3.425-7.271L24.94,19.4V9.45	c0-3.584,2.916-6.5,6.5-6.5h51c3.584,0,6.5,2.916,6.5,6.5v77c0,3.584-2.916,6.5-6.5,6.5H57.429	C55.359,95.478,52.233,96.95,48.66,96.95z"/><rect width="51.112" height="77" x="31.388" y="9.5" fill="#707cc0"/><path fill="#ffc7a3" d="M49.951,25.923l-2.175,3.682l-14.034-5.943c-0.644-0.271-1.384-0.186-1.949,0.225l-12.476,9.052	c-1.592,1.38-1.787,3.78-0.438,5.398l0,0c1.404,1.685,3.927,1.866,5.558,0.399l8.582-8.112l6.551,3.815L24.64,63.41l-13.19,7.013	c-2.209,1.105-3.105,3.791-2,6l0,0c1.105,2.209,3.791,3.105,6,2L33,68.828c0.168-0.104,0.256-0.232,0.386-0.38l5.584-9.229	l10.48,12.204l-4.173,14.558c-0.446,3.245,1.857,3.16,3.295,3.16h2.626l5.741-19.086c0.166-0.551,0.086-1.147-0.218-1.635	l-9.271-14.858l5-10l7.41,6.834c0.53,0.488,1.281,0.654,1.967,0.434l11.433-3.668c1.591-0.51,2.49-2.191,2.031-3.798v0	c-0.466-1.63-2.156-2.582-3.791-2.136l-8.607,2.347l-8.442-10.152l1-2c0,0,3.5,2.5,6.5-1.5s4-12-1-15S46.951,15.923,49.951,25.923z"/><polygon fill="#ff7575" points="39.833,26.221 35.338,31.974 39.57,34.439 32,49 47.451,53.562 52.451,43.562 56.357,47.165 60.844,41.093 54.5,33.361 47.776,29.605"/><polygon fill="#96c362" points="32,49 26.36,59.91 35.591,64.804 38.971,59.219 45.427,66.737 52.398,61.491 47.451,53.562"/><path fill="#40396e" d="M82.5,8h-51C30.672,8,30,8.672,30,9.5v12.189L17.475,32.874c-1.084,0.969-1.715,2.301-1.776,3.752	c-0.063,1.452,0.453,2.834,1.45,3.891c1.986,2.104,5.338,2.23,7.475,0.281L30,36.405v9.898l-6.682,16.13l-12.317,6.64	c-2.82,1.411-4.172,4.734-3.078,7.566c0.608,1.574,1.855,2.824,3.421,3.43c1.564,0.607,3.239,0.469,4.86-0.244L30,73.832V86.5	c0,0.828,0.672,1.5,1.5,1.5h11.163c0.867,2.498,3.089,4,6.056,4c2.267,0,4.869-1.077,5.928-4H82.5c0.828,0,1.5-0.672,1.5-1.5v-77	C84,8.672,83.328,8,82.5,8z M81,85H53.5c-0.724,0-1.345,0.517-1.476,1.229C51.581,88.64,49.763,89,48.719,89	c-1.366,0-3.065-0.472-3.399-2.72c-0.108-0.735-0.74-1.28-1.483-1.28H33V68.828l-18.171,8.33c-0.874,0.379-1.624,0.412-2.403,0.113	c-0.79-0.307-1.396-0.915-1.704-1.715c-0.543-1.405,0.169-3.074,1.662-3.822l12.828-6.914c0.304-0.164,0.542-0.428,0.674-0.746	l7-16.898C32.961,46.993,33,46.799,33,46.602l0.019-15.978l-10.418,7.957c-0.936,0.85-2.402,0.798-3.271-0.123	c-0.437-0.463-0.662-1.068-0.635-1.703c0.027-0.636,0.304-1.22,0.777-1.643L32.499,23.48C32.817,23.195,33,22.789,33,22.361V11h48	V85z"/><path fill="#40396e" d="M50.953,25.592c-0.221-1.221,0.611-2.393,1.859-2.619c0.68-0.123,1.643,0.142,2.334,1.171	c2.512-5.158,6.997-4.363,9.191-3.727c-0.315-2.672-1.633-4.534-3.337-5.557c-4.941-2.965-14.306,1.11-11.049,11.062l1.242,0.348	C51.121,26.111,50.986,25.773,50.953,25.592z"/></svg>