<svg xmlns="http://www.w3.org/2000/svg"  viewBox="0 0 100 100" width="100px" height="100px"><path d="M52,96C27.738,96,8,76.262,8,52S27.738,8,52,8s44,19.738,44,44c0,8.982-2.755,17.728-7.829,25.052 l0.776,0.873c1.15,1.296,1.743,3.025,1.63,4.748c-0.113,1.723-0.928,3.36-2.235,4.49l-6.094,5.262 c-1.182,1.02-2.689,1.581-4.247,1.581c-1.851,0-3.62-0.792-4.853-2.174l-0.752-0.845C66.127,94.277,59.156,96,52,96z" opacity=".35"/><path fill="#f2f2f2" d="M50,94C25.738,94,6,74.262,6,50S25.738,6,50,6s44,19.738,44,44c0,8.982-2.755,17.728-7.829,25.052 l0.776,0.873c1.15,1.296,1.743,3.025,1.63,4.748c-0.113,1.723-0.928,3.36-2.235,4.49l-6.094,5.262 c-1.182,1.02-2.689,1.581-4.247,1.581c-1.851,0-3.62-0.792-4.853-2.174l-0.752-0.845C64.127,92.277,57.156,94,50,94z"/><circle cx="50" cy="50" r="37.5" fill="#70bfff"/><path fill="none" stroke="#40396e" stroke-linecap="round" stroke-linejoin="round" stroke-miterlimit="10" stroke-width="3" d="M87.5,50c0-20.711-16.789-37.5-37.5-37.5S12.5,29.289,12.5,50S29.289,87.5,50,87.5c8.066,0,15.53-2.555,21.647-6.888L76,85.506 l6.091-5.259l-4.407-4.954C83.78,68.624,87.5,59.747,87.5,50z"/><path fill="#40396e" d="M87.44,51.506v-3H70.201 c-0.11-5.856-0.861-11.34-2.126-16.212c4.447-1.187,8.441-2.814,11.725-4.83l-1.569-2.557c-3.061,1.879-6.801,3.399-10.981,4.509 c-3.526-11.092-9.866-18.35-17.25-18.35c-7.377,0-13.712,7.245-17.239,18.319c-4.063-1.081-7.758-2.544-10.87-4.342l-1.501,2.598 c3.316,1.916,7.241,3.475,11.543,4.624c-1.269,4.88-2.023,10.374-2.133,16.241H12.56v3h17.239c0.11,5.856,0.861,11.34,2.126,16.212 c-4.447,1.187-8.441,2.814-11.725,4.83l1.569,2.557c3.061-1.879,6.801-3.399,10.981-4.509c3.526,11.092,9.866,18.35,17.25,18.35 c7.377,0,13.712-7.245,17.239-18.319c4.063,1.081,7.758,2.544,10.87,4.342l1.501-2.598c-3.316-1.916-7.241-3.475-11.543-4.624 c1.269-4.88,2.023-10.374,2.133-16.241C70.2,51.506,87.44,51.506,87.44,51.506z M67.201,48.506H51.5V34.529 c4.743-0.091,9.339-0.614,13.597-1.524C66.335,37.681,67.086,42.955,67.201,48.506z M64.249,30.125 c-3.986,0.834-8.294,1.315-12.749,1.404V14.217C56.739,15.213,61.391,21.349,64.249,30.125z M48.5,14.217v17.312 c-4.41-0.091-8.716-0.584-12.739-1.435C38.62,21.334,43.267,15.212,48.5,14.217z M34.911,32.975 c4.297,0.926,8.893,1.46,13.589,1.554v13.977H32.799C32.915,42.943,33.668,37.658,34.911,32.975z M32.799,51.506H48.5v13.977 c-4.743,0.092-9.339,0.614-13.597,1.524C33.665,62.331,32.914,57.057,32.799,51.506z M35.751,69.887 c3.986-0.834,8.294-1.315,12.749-1.404v17.312C43.261,84.799,38.609,78.663,35.751,69.887z M51.5,85.795V68.483 c4.41,0.091,8.716,0.584,12.739,1.435C61.38,78.678,56.733,84.8,51.5,85.795z M65.089,67.037c-4.297-0.926-8.893-1.46-13.589-1.554 V51.506h15.701C67.085,57.069,66.332,62.354,65.089,67.037z" opacity=".35"/><polygon fill="#f2f2f2" points="67.155,73.51 60.56,82.371 54.03,54.271 81.191,64.557 71.423,69.812 80.385,80.134 76.11,83.825"/></svg>