<svg xmlns="http://www.w3.org/2000/svg"  viewBox="0 0 100 100" width="200px" height="200px" baseProfile="basic"><path d="M96.85,44.85c0,7.87-4.79,14.76-11.92,17.57C81.12,70.64,72.88,76,63.66,76	c-2.69,0-5.39-0.48-7.93-1.4c-2.74,1.58-5.86,2.43-9.06,2.43c-0.24,0-0.48-0.02-0.72-0.03c0.03,0.33,0.05,0.66,0.05,1	c0,6.07-4.93,11-11,11c-0.93,0-1.83-0.13-2.7-0.35C30.84,92.36,27.22,95,23,95c-5.51,0-10-4.49-10-10s4.49-10,10-10	c0.48,0,0.94,0.04,1.4,0.11c0.3-1.12,0.78-2.17,1.4-3.11c0.06-0.1,0.13-0.2,0.2-0.29c0.03-0.04,0.06-0.09,0.09-0.13	c-0.03-0.01-0.06-0.03-0.09-0.04V60H14.55c-0.45-1.11-0.81-2.27-1.06-3.47c-3.41-3.84-5.34-8.84-5.34-13.98	c0-5.65,2.25-10.98,6.22-14.92c1.73-8.48,9.09-14.68,17.92-14.81C36.24,9.7,41.09,8,46.18,8c3.07,0,6.09,0.63,8.88,1.83	C57.6,8.62,60.36,8,63.21,8c2.72,0,5.37,0.59,7.79,1.68V16h8.17c6.28,3,10.77,8.71,12.21,15.55C94.87,35.08,96.85,39.82,96.85,44.85	z" opacity=".35"/><path fill="#f2f2f2" d="M89.377,29.552c-1.488-7.074-6.236-12.938-12.858-15.863C72.939,8.908,67.224,6,61.208,6	c-2.844,0-5.612,0.625-8.149,1.826C50.268,6.625,47.249,6,44.185,6c-5.091,0-9.946,1.696-13.896,4.818	c-8.832,0.135-16.187,6.332-17.92,14.817c-3.973,3.932-6.215,9.262-6.215,14.911c0,5.144,1.928,10.147,5.338,13.981	c1.453,6.904,6.287,12.465,12.596,15.05c-0.762,1.054-1.339,2.245-1.69,3.532C21.94,73.045,21.476,73,21,73c-5.514,0-10,4.486-10,10	s4.486,10,10,10c4.224,0,7.838-2.637,9.3-6.349C31.166,86.871,32.067,87,33,87c6.065,0,11-4.935,11-11c0-0.338-0.021-0.67-0.051-1	c0.24,0.01,0.479,0.031,0.72,0.031c3.2,0,6.325-0.847,9.061-2.426C56.272,73.522,58.967,74,61.661,74	c9.216,0,17.46-5.359,21.266-13.578c7.136-2.814,11.919-9.699,11.919-17.576C94.846,37.821,92.874,33.076,89.377,29.552z"/><path fill="#70bfff" d="M88.346,42.846c0-4.091-1.987-7.71-5.039-9.973c-0.557-6.533-5.033-11.945-11.073-13.866	c-2.148-3.879-6.279-6.507-11.026-6.507c-3.016,0-5.782,1.062-7.951,2.829c-2.579-1.781-5.702-2.829-9.073-2.829	c-4.568,0-8.677,1.925-11.591,4.995c-0.655-0.109-1.323-0.18-2.009-0.18c-6.517,0-11.818,5.15-12.089,11.6	c-3.54,2.652-5.841,6.867-5.841,11.63c0,4.347,1.918,8.237,4.941,10.901c0.648,7.4,6.852,13.207,14.42,13.207	c1.243,0,2.443-0.173,3.595-0.468c2.132,2.647,5.395,4.345,9.059,4.345c3.239,0,6.166-1.326,8.275-3.462	c2.55,1.533,5.525,2.432,8.717,2.432c7.791,0,14.338-5.259,16.327-12.416C83.864,54.098,88.346,49.002,88.346,42.846z"/><path fill="#40396e" d="M44.669,70.031c-3.671,0-7.12-1.514-9.604-4.184c-1.027,0.204-2.05,0.307-3.05,0.307	c-8.146,0-14.859-5.971-15.852-13.983c-3.191-3.027-5.01-7.23-5.01-11.625c0-4.854,2.138-9.335,5.89-12.399	c0.648-6.97,6.466-12.332,13.541-12.332c0.476,0,0.963,0.029,1.475,0.089C35.338,12.736,39.613,11,44.185,11	c3.196,0,6.289,0.862,9.009,2.503C55.539,11.882,58.346,11,61.208,11c4.925,0,9.483,2.578,12.039,6.766	c6.25,2.218,10.676,7.737,11.486,14.316c3.258,2.66,5.112,6.546,5.112,10.765c0,6.503-4.439,12.05-10.685,13.53	C76.67,63.854,69.603,69,61.661,69c-2.953,0-5.868-0.72-8.497-2.09C50.793,68.93,47.817,70.031,44.669,70.031z M35.61,62.686	c0.447,0,0.88,0.201,1.168,0.559c1.938,2.406,4.813,3.786,7.891,3.786c2.728,0,5.287-1.071,7.208-3.016	c0.486-0.492,1.245-0.59,1.841-0.231C56.129,65.233,58.876,66,61.661,66c6.911,0,13.03-4.654,14.882-11.318	c0.156-0.562,0.623-0.981,1.197-1.078c5.276-0.885,9.105-5.409,9.105-10.758c0-3.484-1.615-6.68-4.432-8.769	c-0.346-0.256-0.564-0.648-0.601-1.077c-0.499-5.853-4.438-10.784-10.033-12.563c-0.365-0.116-0.673-0.368-0.858-0.703	C68.963,16.197,65.241,14,61.208,14c-2.543,0-5.031,0.885-7.004,2.492c-0.517,0.42-1.25,0.45-1.8,0.071	C49.977,14.886,47.134,14,44.185,14c-4.002,0-7.731,1.608-10.503,4.528c-0.342,0.361-0.838,0.531-1.336,0.447	c-0.641-0.107-1.216-0.16-1.761-0.16c-5.699,0-10.352,4.464-10.591,10.164c-0.02,0.45-0.239,0.868-0.6,1.138	c-3.33,2.494-5.24,6.295-5.24,10.429c0,3.731,1.616,7.294,4.433,9.776c0.289,0.254,0.47,0.611,0.503,0.995	c0.581,6.638,6.259,11.837,12.926,11.837c1.046,0,2.131-0.142,3.223-0.421C35.362,62.701,35.486,62.686,35.61,62.686z"/><circle cx="33" cy="76" r="4.5" fill="#70bfff"/><path fill="#40396e" d="M33,82c-3.309,0-6-2.691-6-6s2.691-6,6-6s6,2.691,6,6S36.309,82,33,82z M33,73c-1.654,0-3,1.346-3,3	s1.346,3,3,3s3-1.346,3-3S34.654,73,33,73z"/><circle cx="21" cy="83" r="3.5" fill="#70bfff"/><path fill="#40396e" d="M21,88c-2.757,0-5-2.243-5-5s2.243-5,5-5s5,2.243,5,5S23.757,88,21,88z M21,81c-1.103,0-2,0.897-2,2	s0.897,2,2,2s2-0.897,2-2S22.103,81,21,81z"/><path d="M26,71.71V72h-0.2C25.86,71.9,25.93,71.8,26,71.71z"/></svg>