<svg xmlns="http://www.w3.org/2000/svg"  viewBox="0 0 100 100" width="100px" height="100px"><path d="M26.137,92.181c-2.436,0-4.646-1.343-5.769-3.505c-1.121-2.161-0.949-4.739,0.448-6.729 c1.563-2.224,3.199-4.572,3.716-6.096C15.68,68.849,9.937,59.376,9.937,48.792c0-20.387,18.869-36.974,42.063-36.974 s42.062,16.586,42.062,36.974S75.193,85.766,52,85.766c-2.732,0-5.249-0.184-7.621-0.559 C40.916,88.177,34.664,92.181,26.137,92.181z" opacity=".35"/><path fill="#f2f2f2" d="M24.137,90.181c-2.436,0-4.646-1.343-5.769-3.505c-1.121-2.161-0.949-4.739,0.448-6.729 c1.563-2.224,2.463-4.226,2.979-5.75C12.944,67.195,7.937,57.376,7.937,46.792C7.937,26.405,26.807,9.819,50,9.819 s42.062,16.586,42.062,36.974S73.193,83.766,50,83.766c-2.732,0-5.249-0.184-7.621-0.559 C38.916,86.177,32.664,90.181,24.137,90.181z"/><path fill="#70bfff" d="M85.562,46.792c0,16.841-15.841,30.474-35.562,30.474c-3.395,0-6.628-0.321-9.699-1.123 c0,0-6.143,7.538-16.165,7.538c4.849-6.897,4.849-12.35,4.849-12.35c-8.891-5.614-14.548-14.435-14.548-24.539 c0-16.841,15.842-30.474,35.563-30.474S85.562,29.952,85.562,46.792z"/><path fill="#40396e" d="M24.137,85.181c-0.56,0-1.073-0.312-1.331-0.809c-0.258-0.497-0.218-1.096,0.104-1.554 c3.453-4.911,4.302-9.053,4.509-10.715c-9.215-6.124-14.48-15.303-14.48-25.311c0-17.63,16.626-31.974,37.062-31.974 s37.062,14.343,37.062,31.974c0,17.63-16.626,31.973-37.062,31.973c-3.396,0-6.412-0.312-9.186-0.952 C38.911,79.809,32.967,85.181,24.137,85.181z M50,17.819c-18.782,0-34.062,12.998-34.062,28.974 c0,9.231,5.048,17.713,13.849,23.271c0.436,0.275,0.699,0.754,0.699,1.269c0,0.212-0.045,4.67-3.466,10.619 c7.47-1.202,12.069-6.695,12.12-6.758c0.373-0.452,0.976-0.648,1.54-0.501c2.767,0.723,5.815,1.074,9.32,1.074 c18.782,0,34.062-12.997,34.062-28.973S68.782,17.819,50,17.819z"/><circle cx="50" cy="45.963" r="4.093" fill="#40396e"/><circle cx="34" cy="45.963" r="4.093" fill="#40396e"/><g><circle cx="66" cy="45.963" r="4.093" fill="#40396e"/></g></svg>