<svg xmlns="http://www.w3.org/2000/svg"  viewBox="0 0 100 100" width="100px" height="100px"><circle cx="52.27" cy="52.191" r="44" opacity=".35"/><circle cx="50.27" cy="50.191" r="44" fill="#f2f2f2"/><path fill="#f2f2f2" d="M50.27,91.191c-22.607,0-41-18.393-41-41s18.393-41,41-41s41,18.393,41,41 S72.877,91.191,50.27,91.191z"/><path fill="#ff7575" d="M50.296,12.191c-21.001,0-38.026,17.025-38.026,38.026c0,21.001,17.025,38.026,38.026,38.026 c21.001,0,38.026-17.025,38.026-38.026C88.322,29.216,71.297,12.191,50.296,12.191z M23,50c0-14.912,12.088-27,27-27 c5.409,0,10.441,1.596,14.665,4.335l-37.33,37.33C24.596,60.441,23,55.409,23,50z M50,77c-5.667,0-10.924-1.749-15.267-4.733 l37.534-37.534C75.251,39.076,77,44.333,77,50C77,64.912,64.912,77,50,77z"/><path fill="none" stroke="#40396e" stroke-linecap="round" stroke-linejoin="round" stroke-miterlimit="10" stroke-width="3" d="M50.27,12.691c-20.711,0-37.5,16.789-37.5,37.5c0,20.711,16.789,37.5,37.5,37.5s37.5-16.789,37.5-37.5 C87.77,29.48,70.98,12.691,50.27,12.691z M23.579,50.191c0-14.741,11.95-26.691,26.691-26.691c5.444,0,10.505,1.634,14.727,4.432 L28.011,64.918C25.212,60.696,23.579,55.635,23.579,50.191z M50.27,76.882c-5.682,0-10.945-1.781-15.273-4.807l37.157-37.157 c3.026,4.328,4.807,9.591,4.807,15.273C76.961,64.932,65.011,76.882,50.27,76.882z"/></svg>