<svg width="276" height="235" viewBox="0 0 276 235" fill="none" xmlns="http://www.w3.org/2000/svg">
<path d="M267 73.144C267.099 70.624 269.154 60.745 271.398 52.003L271.512 51.565L271.596 51.121C273.726 40.117 270.36 28.723 262.584 20.641C256.128 13.936 247.05 10.09 237.678 10.09C235.866 10.09 234.033 10.231 232.23 10.513L231.864 10.57L231.504 10.645C218.961 13.231 202.524 16 198.039 16C192.573 15.988 181.887 13.78 172.455 11.827C161.025 9.463 150.228 7.231 141.486 7.009C140.946 6.994 140.394 6.988 139.827 6.988C130.875 6.988 119.409 8.65 108.276 10.261C99.441 11.542 89.424 12.994 83.952 13C78.42 13 61.515 11.047 48.048 9.217L47.58 9.163C46.386 9.04 45.198 8.977 44.016 8.977C34.392 8.977 25.131 13.063 18.612 20.188C11.157 28.33 8.112 39.316 10.257 50.329L10.344 50.773L10.458 51.211C12.744 60.052 14.91 70.498 14.997 73.048C15.006 76.726 12.738 85.732 11.082 92.305C8.469 102.688 6 112.489 6 121C6 129.511 8.469 139.312 11.085 149.689C12.741 156.262 15.012 165.268 15.003 168.856C14.904 171.379 12.849 181.258 10.605 190L10.491 190.438L10.407 190.882C8.277 201.886 11.643 213.28 19.416 221.359C25.884 228.082 34.947 231.934 44.283 231.934C46.032 231.934 47.796 231.799 49.524 231.532L50.331 231.403L50.7 231.316C63.213 228.739 79.5 226 83.958 226C89.151 226.012 99.822 228.265 108.393 230.074C120.396 232.606 131.733 235 141 235C150.267 235 161.604 232.606 173.607 230.074C182.178 228.262 192.846 226.012 198.045 226C202.629 226 219.105 228.805 231.738 231.4L232.455 231.529C234.195 231.802 235.968 231.937 237.729 231.937C247.053 231.937 256.113 228.082 262.584 221.356C270.363 213.271 273.705 201.769 271.527 190.588L271.44 190.144L271.329 189.7C269.16 181.309 267.096 171.373 267 168.943C266.991 165.265 269.259 156.259 270.915 149.686C273.531 139.312 276 129.511 276 121C276 112.489 273.531 102.688 270.915 92.311C269.259 85.738 266.991 76.732 267 73.144Z" fill="black" fill-opacity="0.35"/>
<path d="M261 67.156C261.099 64.636 263.154 54.757 265.398 46.015L265.512 45.577L265.596 45.133C267.726 34.129 264.36 22.735 256.584 14.653C250.128 7.948 241.05 4.102 231.678 4.102C229.866 4.102 228.033 4.243 226.23 4.525L225.864 4.582L225.504 4.657C212.961 7.243 196.524 10.012 192.039 10.012C186.573 10 175.887 7.792 166.455 5.839C155.025 3.475 144.228 1.243 135.486 1.021C134.946 1.006 134.394 1 133.827 1C124.875 1 113.409 2.662 102.276 4.273C93.441 5.554 83.424 7.006 77.952 7.012C72.42 7.012 55.515 5.059 42.048 3.229L41.58 3.175C40.386 3.052 39.198 2.989 38.016 2.989C28.392 2.989 19.131 7.075 12.612 14.2C5.157 22.342 2.112 33.328 4.257 44.341L4.344 44.785L4.458 45.223C6.747 54.073 8.913 64.516 9 67.069C9.009 70.747 6.741 79.753 5.085 86.326C2.469 96.7 0 106.501 0 115.012C0 123.523 2.469 133.324 5.085 143.701C6.741 150.274 9.009 159.28 9 162.865C8.901 165.388 6.846 175.267 4.602 184.009L4.488 184.447L4.404 184.891C2.274 195.895 5.64 207.289 13.413 215.368C19.881 222.091 28.944 225.943 38.28 225.943C40.029 225.943 41.793 225.808 43.521 225.541L44.328 225.412L44.697 225.325C57.213 222.751 73.5 220.012 77.958 220.012C83.151 220.024 93.822 222.277 102.393 224.086C114.396 226.618 125.733 229.012 135 229.012C144.267 229.012 155.604 226.618 167.607 224.086C176.178 222.274 186.846 220.024 192.045 220.012C196.629 220.012 213.105 222.817 225.738 225.412L226.455 225.541C228.195 225.814 229.968 225.949 231.729 225.949C241.053 225.949 250.113 222.094 256.584 215.368C264.363 207.283 267.705 195.781 265.527 184.6L265.44 184.156L265.329 183.712C263.16 175.321 261.096 165.385 261 162.955C260.991 159.277 263.259 150.271 264.915 143.698C267.531 133.324 270 123.523 270 115.012C270 106.501 267.531 96.7 264.915 86.323C263.259 79.75 260.991 70.744 261 67.156Z" fill="#F2F2F2"/>
<path d="M40.557 206.26C40.557 206.26 68.529 200.482 78 200.5C92.427 200.53 120.573 209.5 135 209.5C149.427 209.5 177.573 200.53 192 200.5C201.471 200.482 229.443 206.26 229.443 206.26C239.7 207.838 248.424 198.772 246.45 188.584C246.45 188.584 241.518 169.513 241.497 163C241.461 150.79 250.497 127.21 250.497 115C250.497 102.79 241.461 79.21 241.497 67C241.515 60.484 246.45 41.416 246.45 41.416C248.421 31.228 239.7 22.162 229.443 23.74C229.443 23.74 201.471 29.518 192 29.5C177.573 29.47 149.421 20.872 135 20.5C120.675 20.128 92.328 26.482 78 26.5C68.349 26.512 39.597 22.561 39.597 22.561C29.589 21.535 21.429 30.457 23.34 40.333C23.34 40.333 28.482 60.208 28.5 67C28.536 79.21 19.5 102.79 19.5 115C19.5 127.21 28.536 150.79 28.5 163C28.482 169.516 23.547 188.584 23.547 188.584C21.576 198.775 30.297 207.838 40.557 206.26Z" fill="#70BFFF"/>
<path d="M135 214C127.299 214 116.706 211.765 105.492 209.398C95.28 207.241 84.72 205.015 77.991 205C77.979 205 77.967 205 77.952 205C70.53 205 49.107 209.089 41.463 210.667C41.388 210.685 41.313 210.697 41.238 210.709C34.977 211.672 28.614 209.521 24.222 204.958C19.83 200.392 17.925 193.951 19.131 187.732C20.523 182.308 23.985 167.866 24 162.991C24.015 157.432 21.786 148.582 19.629 140.026C17.25 130.57 15 121.645 15 115C15 108.355 17.25 99.43 19.629 89.977C21.786 81.418 24.015 72.568 24 67.012C23.985 61.906 20.373 46.837 18.984 41.461C17.736 35.065 19.473 28.915 23.679 24.319C27.888 19.72 33.867 17.452 40.056 18.085C40.494 18.145 68.682 22 77.955 22C77.967 22 77.982 22 77.994 22C84.528 21.991 94.668 20.521 104.472 19.099C115.677 17.476 127.281 15.808 135.114 16.003C142.503 16.192 152.664 18.295 163.422 20.518C174.045 22.714 185.028 24.985 192.009 25C192.021 25 192.033 25 192.048 25C199.47 25 220.893 20.911 228.537 19.333C235.02 18.325 241.386 20.479 245.781 25.042C250.173 29.608 252.078 36.049 250.872 42.268C249.48 47.692 246.018 62.134 246.003 67.009C245.988 72.568 248.217 81.418 250.374 89.974C252.75 99.43 255 108.355 255 115C255 121.645 252.75 130.57 250.371 140.023C248.214 148.582 245.985 157.432 246 162.988C246.015 167.863 249.477 182.305 250.809 187.456C252.075 193.948 250.173 200.389 245.778 204.955C241.383 209.521 235.02 211.678 228.762 210.706C220.893 209.089 199.467 205 192.045 205C192.033 205 192.021 205 192.009 205C185.28 205.015 174.72 207.241 164.508 209.398C153.294 211.765 142.701 214 135 214ZM77.961 196C77.976 196 77.994 196 78.009 196C85.671 196.015 96.201 198.238 107.352 200.59C117.621 202.759 128.238 205 135 205C141.762 205 152.379 202.759 162.648 200.59C173.799 198.238 184.329 196.015 191.991 196C192.006 196 192.024 196 192.039 196C201.903 196 229.197 201.613 230.355 201.853C233.559 202.333 236.892 201.211 239.292 198.715C241.692 196.219 242.691 192.838 242.034 189.439C241.575 187.702 237.021 169.894 237 163.009C236.982 156.322 239.247 147.337 241.641 137.821C243.786 129.319 246 120.529 246 115C246 109.471 243.786 100.681 241.641 92.176C239.244 82.66 236.979 73.675 237 66.988C237.021 60.103 241.575 42.298 242.094 40.288C242.691 37.162 241.692 33.781 239.289 31.285C236.886 28.789 233.553 27.661 230.127 28.189C229.194 28.387 201.903 34 192.039 34C192.024 34 192.006 34 191.991 34C184.098 33.985 172.662 31.618 161.601 29.329C151.704 27.283 141.471 25.165 134.886 24.997C127.764 24.817 116.595 26.437 105.762 28.009C95.178 29.542 85.182 30.988 78.006 31C77.991 31 77.976 31 77.961 31C68.07 31 40.17 27.184 38.985 27.022C35.808 26.692 32.586 27.922 30.321 30.394C28.056 32.872 27.123 36.184 27.759 39.478C28.239 41.296 32.979 59.836 33.003 66.985C33.021 73.672 30.756 82.66 28.362 92.173C26.214 100.681 24 109.471 24 115C24 120.529 26.214 129.319 28.359 137.824C30.756 147.34 33.021 156.325 33 163.012C32.979 169.897 28.425 187.702 27.906 189.712C27.309 192.838 28.308 196.219 30.711 198.715C33.087 201.184 36.39 202.324 39.771 201.826C42.069 201.355 68.325 196 77.961 196Z" fill="#40396E"/>
<g clip-path="url(#clip0_38_30)">
<path opacity="0.35" d="M200.864 76.8983C194.722 65.3994 185.971 56.3381 174.852 49.9648C163.865 43.6733 151.012 40.4824 136.653 40.4824C122.274 40.4824 109.442 43.6784 98.5159 49.9818C87.467 56.3517 78.7551 65.4097 72.617 76.9017C66.6102 88.1551 63.5625 101.381 63.5625 116.21C63.5625 131.041 66.6085 144.269 72.617 155.519C78.75 167.004 87.4875 176.088 98.5824 182.515C109.573 188.885 122.383 192.114 136.653 192.114C151.04 192.114 163.907 188.885 174.9 182.515C186.007 176.079 194.746 166.958 200.877 155.405C206.877 144.103 209.92 130.856 209.92 116.031C209.922 101.321 206.874 88.1568 200.864 76.8983Z" fill="black"/>
<path d="M197.381 73.4159C191.24 61.917 182.489 52.8557 171.37 46.4824C160.383 40.1892 147.53 37 133.17 37C118.79 37 105.958 40.196 95.032 46.4994C83.9832 52.8693 75.2712 61.9273 69.1332 73.4193C63.1246 84.6727 60.0786 97.8983 60.0786 112.726C60.0786 127.557 63.1246 140.785 69.1332 152.035C75.2661 163.52 84.0019 172.603 95.0985 179.033C106.089 185.401 118.899 188.631 133.17 188.631C147.556 188.631 160.424 185.403 171.416 179.033C182.523 172.597 191.262 163.476 197.393 151.922C203.393 140.621 206.436 127.373 206.436 112.549C206.438 97.8369 203.39 84.6727 197.381 73.4159Z" fill="#F2F2F2"/>
<path d="M133.169 177.625C120.861 177.625 110.064 174.618 100.776 169.235C91.4847 163.854 84.2694 156.345 79.1233 146.703C73.9756 137.064 71.0796 125.739 71.0796 112.726C71.0796 99.717 73.9756 88.392 79.1233 78.7511C84.2711 69.1136 91.4591 61.629 100.689 56.3074C109.919 50.9841 120.745 48.0795 133.171 48.0795C145.597 48.0795 156.45 50.9841 165.742 56.3074C175.03 61.629 182.248 69.1119 187.394 78.7511C192.54 88.392 195.511 99.6591 195.511 112.549C195.511 125.561 192.54 136.915 187.394 146.614C182.247 156.313 175.028 163.854 165.742 169.235C156.45 174.618 145.595 177.625 133.169 177.625ZM133.258 154.644C143.669 154.644 151.718 150.252 157.575 142.977C163.432 135.702 166.534 125.619 166.534 112.726C166.534 99.717 163.461 89.6347 157.662 82.4773C151.865 75.3216 143.787 71.033 133.258 71.033C122.964 71.033 114.798 75.3216 108.941 82.4773C103.084 89.6347 100.057 99.717 100.057 112.726C100.057 125.619 103.084 135.702 108.941 142.977C114.798 150.25 122.964 154.644 133.258 154.644Z" fill="#70BFFF"/>
<path d="M133.17 180.182C120.827 180.182 109.497 177.243 99.4945 171.448C89.8298 165.85 82.2173 157.929 76.8684 147.906C71.3303 137.534 68.5229 125.698 68.5229 112.726C68.5229 99.7545 71.3303 87.9182 76.8684 77.546C82.2224 67.5216 89.8059 59.6313 99.4144 54.0915C109.27 48.4051 120.627 45.5227 133.17 45.5227C145.705 45.5227 157.091 48.4034 167.012 54.0881C176.68 59.6278 184.296 67.5199 189.648 77.5443C195.235 88.0085 198.068 99.7852 198.068 112.549C198.068 125.428 195.237 137.292 189.651 147.812C184.301 157.895 176.688 165.847 167.022 171.448C157.018 177.243 145.626 180.182 133.17 180.182ZM133.17 50.6364C121.538 50.6364 111.039 53.2903 101.966 58.5233C93.1997 63.5773 86.2741 70.7875 81.3786 79.9545C76.2411 89.5767 73.6366 100.602 73.6366 112.726C73.6366 124.851 76.2411 135.877 81.3786 145.501C86.2724 154.67 93.2303 161.911 102.058 167.024C111.271 172.361 121.739 175.068 133.17 175.068C144.716 175.068 155.243 172.361 164.458 167.023C173.284 161.909 180.241 154.637 185.134 145.414C190.323 135.64 192.955 124.585 192.955 112.549C192.955 100.634 190.325 89.667 185.138 79.9545C180.244 70.7892 173.291 63.5807 164.468 58.5267C155.334 53.292 144.801 50.6364 133.17 50.6364ZM133.26 157.201C122.697 157.201 113.6 152.836 106.95 144.581C100.679 136.794 97.5002 126.076 97.5002 112.726C97.5002 99.2517 100.683 88.5301 106.962 80.858C113.595 72.758 122.687 68.4761 133.26 68.4761C144.109 68.4761 152.99 72.6455 159.65 80.8682C165.916 88.6034 169.091 99.3233 169.091 112.726C169.091 126.015 165.887 136.733 159.566 144.581C152.823 152.953 143.973 157.201 133.26 157.201ZM133.26 73.5898C124.142 73.5898 116.627 77.125 110.922 84.0966C105.409 90.8313 102.614 100.462 102.614 112.726C102.614 124.881 105.413 134.519 110.932 141.374C116.658 148.482 124.17 152.087 133.26 152.087C142.349 152.087 149.859 148.482 155.586 141.374C161.155 134.457 163.977 124.818 163.977 112.726C163.977 100.525 161.184 90.8875 155.676 84.0864C150.033 77.1216 142.492 73.5898 133.26 73.5898Z" fill="#40396E"/>
</g>
<defs>
<clipPath id="clip0_38_30">
<rect width="150" height="155.114" fill="white" transform="translate(60 37)"/>
</clipPath>
</defs>
</svg>
