<svg xmlns="http://www.w3.org/2000/svg"  viewBox="0 0 100 100" width="200px" height="200px" baseProfile="basic"><path d="M52,95.6806641C27.9140625,95.6806641,8.3193359,76.0854492,8.3193359,52S27.9140625,8.3193359,52,8.3193359 c7.7929688,0,15.5273438,2.1318359,22.2128906,6.0673828l0.0410156-0.0458984 c1.5185547-1.7363281,3.7128906-2.7319336,6.0205078-2.7319336c0.6689453,0,1.3349609,0.0839844,1.9824219,0.2495117 c2.9335938,0.7490234,5.1669922,3.0527344,5.8261719,6.0117188l4.1171875,18.5302734 c0.5078125,2.2851562-0.0185547,4.6787109-1.4091797,6.5351562C93.734375,44.8789062,95.6806641,48.2163086,95.6806641,52 C95.6806641,76.0854492,76.0859375,95.6806641,52,95.6806641z" opacity=".35"/><path fill="#F2F2F2" d="M50,93.6806641C25.9140625,93.6806641,6.3193359,74.0854492,6.3193359,50 S25.9140625,6.3193359,50,6.3193359c7.7929688,0,15.5273438,2.1318359,22.2128906,6.0673828l0.0410156-0.0458984 c1.5185547-1.7363281,3.7128906-2.7319336,6.0205078-2.7319336c0.6689453,0,1.3349609,0.0839844,1.9824219,0.2495117 c2.9335938,0.7490234,5.1669922,3.0527344,5.8261719,6.0117188l4.1171875,18.5302734 c0.5078125,2.2851562-0.0185547,4.6787109-1.4091797,6.5351562C91.734375,42.8789062,93.6806641,46.2163086,93.6806641,50 C93.6806641,74.0854492,74.0859375,93.6806641,50,93.6806641z"/><path fill="#70BFFF" d="M50,87.1806641c-20.5019531,0-37.1806641-16.6791992-37.1806641-37.1806641 S29.4980469,12.8193359,50,12.8193359c8.5068359,0,16.7207031,2.9013672,23.296875,8.199707l3.8486328-4.3979492 c0.2890625-0.3300781,0.7021484-0.512207,1.1289062-0.512207c0.1240234,0,0.2480469,0.0151367,0.3710938,0.046875 c0.5478516,0.1396484,0.9707031,0.5756836,1.0927734,1.1279297l4.1171875,18.5268555 c0.1054688,0.4726562-0.0244141,0.9667969-0.3476562,1.3271484c-0.2861328,0.3188477-0.6923828,0.4980469-1.1162109,0.4980469 c-0.0546875,0-0.1103516-0.0029297-0.1660156-0.0092773l-18.5273438-2.0585938 c-0.5546875-0.0615234-1.0292969-0.4267578-1.2324219-0.9472656c-0.2021484-0.5209961-0.0986328-1.1108398,0.2695312-1.53125 l4.8193359-5.5083008C62.5673828,23.6674805,56.390625,21.5283203,50,21.5283203 c-15.6992188,0-28.4716797,12.7724609-28.4716797,28.4716797S34.3007812,78.4716797,50,78.4716797 S78.4716797,65.6992188,78.4716797,50c0-2.4008789,1.953125-4.3544922,4.3544922-4.3544922S87.1806641,47.5991211,87.1806641,50 C87.1806641,70.5014648,70.5019531,87.1806641,50,87.1806641z"/><path fill="#40396E" d="M50,14.3191528c8.7346191,0,17.0075073,3.1506348,23.4580688,8.7936707l4.815979-5.5039368 l4.1170654,18.5268555L63.8642578,34.077179l5.8340454-6.66745C64.2797852,22.6728516,57.3337402,20.0280762,50,20.0280762 c-16.5265503,0-29.9719238,13.4453735-29.9719238,29.9719238S33.4734497,79.9719238,50,79.9719238 S79.9719238,66.5265503,79.9719238,50c0-1.576355,1.2776489-2.8544617,2.8544312-2.8544617 c1.5768433,0,2.8544922,1.2781067,2.8544922,2.8544617c0,19.6746521-16.0062256,35.6808472-35.6808472,35.6808472 S14.3191528,69.6746521,14.3191528,50S30.3253784,14.3191528,50,14.3191528 M50,11.3191528 c-21.3286743,0-38.6808472,17.3521423-38.6808472,38.6808472S28.6713257,88.6808472,50,88.6808472 S88.6808472,71.3287048,88.6808472,50c0-3.2281799-2.6263428-5.8544617-5.8544922-5.8544617S76.9719238,46.7718201,76.9719238,50 c0,14.8723755-12.0995483,26.9719238-26.9719238,26.9719238S23.0280762,64.8723755,23.0280762,50 S35.1276245,23.0280762,50,23.0280762c5.5202026,0,10.8712769,1.6846619,15.3531494,4.791748l-3.7466431,4.2818298 c-0.7357178,0.8408203-0.9432373,2.020813-0.5385132,3.0621948c0.4046631,1.0413818,1.3545532,1.7716064,2.4649658,1.894989 l18.5268555,2.0585632c0.1107178,0.0122986,0.2214966,0.0183716,0.331543,0.0183716 c0.8466797,0,1.6601562-0.358551,2.2324829-0.9963074c0.6467896-0.7206726,0.9058838-1.7092285,0.6958618-2.6545105 l-4.1170654-18.5268555c-0.2453613-1.1038818-1.0905151-1.9760284-2.1861572-2.2559052 c-0.2459106-0.0628204-0.4953003-0.093399-0.7423096-0.0934143c-0.8533325-0.000061-1.6803589,0.3646088-2.2578125,1.0245819 l-2.9177856,3.3345947C66.4579468,14.0167999,58.3638916,11.3191528,50,11.3191528L50,11.3191528z"/></svg>