<svg xmlns="http://www.w3.org/2000/svg"  viewBox="0 0 64 64" width="64px" height="64px"><path fill="#f9e3ae" d="M17.33 24L15.55 14.87 18.76 6.66 25.41 1.96 32.55 0.76 39.47 3.46 44.24 8.67 45.48 12.38 41.98 14.23 40.13 13.14 38.39 10.45 36.07 8.24 30.51 7.03 25.41 8.81 22.68 12.38 21.96 18.15 22.68 20.86 17.33 24z"/><path fill="#f5c872" d="M32.58 6.99L26.56 8.41 25.27 2.06 31.39 0.96 32.58 6.99z"/><path fill="#c2cde7" d="M54,41A22,22,0,0,1,32,63h-.27A22,22,0,0,1,10,41c0-.74,0-1.48.11-2.2A22,22,0,0,1,54,41Z"/><path fill="#acb7d0" d="M28.16,56.53A5,5,0,0,1,32,61.39v1.32l-.27.28A22,22,0,0,1,10,41.18h1.66A5,5,0,0,1,16.5,45,16.06,16.06,0,0,0,28.16,56.53Z"/><path fill="#ced8ed" d="M35.84,25.24A5,5,0,0,1,32,20.38V19.06l.27-.28A22,22,0,0,1,54,40.59H52.34A5,5,0,0,1,47.5,36.8,16.06,16.06,0,0,0,35.84,25.24Z"/><path fill="#8b8e98" d="M37,38a5,5,0,1,0-8,4v4a3,3,0,0,0,3,3h0a3,3,0,0,0,3-3V42A5,5,0,0,0,37,38Z"/><path fill="#8d6c9f" d="M32,18a22.67,22.67,0,0,0-8.54,1.65l-.35-2A8.18,8.18,0,0,1,29,8.19a8,8,0,0,1,9.42,5,3,3,0,0,0,3.32,1.88l2-.35a3,3,0,0,0,2.06-1.43,3,3,0,0,0,.26-2.51A16,16,0,0,0,27.4.35a16.2,16.2,0,0,0-12.15,18.8l.91,5.19A23,23,0,1,0,32,18Zm12.18-6.58a1,1,0,0,1-.77,1.32l-2,.35a1,1,0,0,1-1.09-.6,10,10,0,0,0-7-6.25l-.74-4.18A13.94,13.94,0,0,1,44.18,11.42ZM27.84,2.3A14.23,14.23,0,0,1,30.5,2l.71,4a10.07,10.07,0,0,0-2.66.28,9.62,9.62,0,0,0-1.28.42l-.71-4C27,2.52,27.4,2.4,27.84,2.3ZM17.22,18.8A14.33,14.33,0,0,1,24.67,3.46l.74,4.19A10.35,10.35,0,0,0,21.14,18l.44,2.51a22,22,0,0,0-3.65,2.31ZM32,62A21,21,0,0,1,18.33,25.08,20.68,20.68,0,0,1,22,22.57a18.88,18.88,0,0,1,1.87-.9A20.69,20.69,0,0,1,32,20a21,21,0,0,1,0,42Z"/><path fill="#8d6c9f" d="M16.49 45.07a1 1 0 0 0 .79-1.17 15 15 0 0 1 19-17.27 1 1 0 0 0 .57-1.92A17 17 0 0 0 15.32 44.28a1 1 0 0 0 1 .81zM45.81 31.08a1 1 0 0 0-1.62 1.17 15 15 0 0 1-8.47 23.29 1 1 0 0 0 .49 1.94 17 17 0 0 0 9.6-26.39zM39.94 28.27a15.05 15.05 0 0 1 1.63 1.18 1 1 0 1 0 1.28-1.54A17.07 17.07 0 0 0 41 26.58a1 1 0 1 0-1.06 1.7zM31 55a1 1 0 0 0-1 1v2a1 1 0 0 0 2 0V56A1 1 0 0 0 31 55zM26.55 54.22a1 1 0 0 0-1.28.6l-.68 1.88a1 1 0 0 0 .6 1.28 1 1 0 0 0 .34.06 1 1 0 0 0 .94-.66l.68-1.88A1 1 0 0 0 26.55 54.22zM21.23 52.08l-1.29 1.53a1 1 0 1 0 1.53 1.29l1.29-1.53a1 1 0 1 0-1.53-1.29zM19.74 48.5a1 1 0 0 0-1.37-.37l-1.73 1a1 1 0 0 0 1 1.73l1.73-1A1 1 0 0 0 19.74 48.5z"/><path fill="#8d6c9f" d="M36,42.45a6,6,0,0,0-.22-9.1A6,6,0,0,0,28,42.45V46a4,4,0,0,0,8,0Zm-1.6-1.27a1,1,0,0,0-.4.8v4a2,2,0,0,1-4,0V42a1,1,0,0,0-.4-.8,4,4,0,0,1,1.53-7.09A4.33,4.33,0,0,1,32,34a3.94,3.94,0,0,1,2.51.9,4,4,0,0,1-.13,6.28Z"/></svg>