<svg xmlns="http://www.w3.org/2000/svg"  viewBox="0 0 100 100" width="100px" height="100px"><path fill-opacity=".3" d="M52,97.5c-1.048,0-2.091-0.257-3.017-0.744L14.497,78.763C12.343,77.644,11,75.435,11,73V31	c0-2.435,1.343-4.644,3.505-5.767L48.997,7.237C49.891,6.761,50.942,6.498,52,6.498s2.109,0.263,3.042,0.76l34.461,17.979	C91.657,26.356,93,28.565,93,31v42c0,2.435-1.343,4.644-3.505,5.767L55.003,96.763C54.091,97.243,53.048,97.5,52,97.5z"/><path fill="#f2f2f2" d="M50,95.5c-1.048,0-2.091-0.257-3.017-0.744L12.497,76.763C10.343,75.644,9,73.435,9,71V29	c0-2.435,1.343-4.644,3.505-5.767L46.997,5.237C47.891,4.761,48.942,4.498,50,4.498s2.109,0.263,3.042,0.76l34.461,17.979	C89.657,24.356,91,26.565,91,29v42c0,2.435-1.343,4.644-3.505,5.767L53.003,94.763C52.091,95.243,51.048,95.5,50,95.5z"/><polygon fill="#739f4d" points="15.5,71 50,89 84.5,71 84.5,29 50,11 15.5,29.522"/><polygon fill="#ffb789" points="15.5,71 50,89 84.5,71 50,53"/><polygon fill="#407845" points="43,25 43,46 23,56 23,35"/><polygon fill="#d47f56" points="48,60 31,69 52,80 69,71"/><polygon fill="#96c362" points="50,11 50,53 84.5,71 84.5,29"/><polygon fill="#ef8630" points="57,56.672 57,24 76,34 76,66.565"/><polygon fill="#f9b84f" points="60,58.234 60,30 73,37 73,65"/><polygon fill="#70bfff" points="26,37 40,30 40,44 26,51"/><ellipse cx="62.5" cy="46" fill="#d47f56" rx="1.5" ry="2"/><path fill="#40396e" d="M50,90.5c-0.238,0-0.477-0.057-0.694-0.17l-34.5-18C14.311,72.071,14,71.559,14,71V29	c0-0.559,0.311-1.071,0.806-1.33l34.5-18c0.436-0.227,0.953-0.227,1.389,0l34.5,18C85.689,27.929,86,28.441,86,29v42	c0,0.559-0.311,1.071-0.806,1.33l-34.5,18C50.477,90.443,50.238,90.5,50,90.5z M17,70.091l33,17.218l33-17.218V29.909L50,12.691	L17,29.909V70.091z"/></svg>