<svg xmlns="http://www.w3.org/2000/svg"  viewBox="0 0 100 100" width="100px" height="100px"><circle cx="52" cy="52" r="44" opacity=".35"/><circle cx="50" cy="50" r="44" fill="#f2f2f2"/><path fill="#f4665c" d="M50,12.5c-20.711,0-37.5,16.789-37.5,37.5S29.289,87.5,50,87.5S87.5,70.711,87.5,50 S70.711,12.5,50,12.5z"/><path fill="#40396e" d="M50,89c-21.505,0-39-17.495-39-39s17.495-39,39-39s39,17.495,39,39S71.505,89,50,89z M50,14 c-19.851,0-36,16.149-36,36s16.149,36,36,36s36-16.149,36-36S69.851,14,50,14z"/><g><path fill="#ffc571" d="M72.446,44.727c0.035-0.058,0.054-0.121,0.077-0.182c0.011-0.031,0.03-0.061,0.038-0.093 c0.162-0.606-0.225-1.297-0.94-1.373L56.99,41.534l-5.991-13.438c-0.127-0.287-0.35-0.469-0.601-0.565 c-0.507-0.196-1.139-0.014-1.396,0.565l-5.991,13.439L28.38,43.08c-0.716,0.076-1.103,0.767-0.94,1.373 c0.008,0.03,0.025,0.058,0.036,0.087c0.023,0.063,0.043,0.127,0.079,0.187c0.054,0.09,0.122,0.176,0.208,0.253l10.929,9.848 l-3.052,14.394c-0.173,0.813,0.572,1.467,1.312,1.295c0.011-0.003,0.022-0.01,0.034-0.013c0.091-0.024,0.182-0.056,0.271-0.107 L50,63.044l12.744,7.352c0.386,0.222,0.806,0.174,1.126-0.029l0,0c0.001,0,0.001-0.001,0.002-0.001 c0.088-0.056,0.167-0.122,0.236-0.2c0.002-0.002,0.005-0.004,0.007-0.007c0.062-0.071,0.112-0.15,0.154-0.235 c0.007-0.013,0.016-0.025,0.023-0.038c0.034-0.076,0.053-0.16,0.068-0.245c0.005-0.025,0.015-0.047,0.018-0.073 c0.012-0.111,0.008-0.227-0.018-0.347l-3.052-14.393l10.929-9.848C72.323,44.903,72.392,44.817,72.446,44.727z"/></g></svg>