<svg xmlns="http://www.w3.org/2000/svg"  viewBox="0 0 100 100" width="200px" height="200px" baseProfile="basic"><path d="M87.1865234,94c-3.0703125,0-6.0166016-1.2910156-8.0966797-3.5458984l-2.4072266-2.5019531	l-59.1962891,0.0996094C12.2519531,88.0517578,8,83.7998047,8,78.5742188V22.5c0-5.2255859,4.25-9.4775391,9.4746094-9.4775391	h65.1337891c5.2246094,0,9.4746094,4.2519531,9.4746094,9.4775391l-0.0410156,24H92v25.8574219l2.7001953,2.5644531	c2.1660156,1.9863281,3.4326172,4.7783203,3.5029297,7.8037109c0.0673828,3.0449219-1.078125,5.9023438-3.2265625,8.0488281	C92.8945312,92.8544922,90.1279297,94,87.1865234,94z" opacity=".35"/><path fill="#F2F2F2" d="M85.1865234,92c-3.0703125,0-6.0166016-1.2910156-8.0966797-3.5458984l-2.4072266-2.5019531	l-59.1962891,0.0996094C10.2519531,86.0517578,6,81.7998047,6,76.5742188V20.5c0-5.2255859,4.25-9.4775391,9.4746094-9.4775391	h65.1337891c5.2246094,0,9.4746094,4.2519531,9.4746094,9.4775391l-0.0410156,24H90v25.8574219l2.7001953,2.5644531	c2.1660156,1.9863281,3.4326172,4.7783203,3.5029297,7.8037109c0.0673828,3.0449219-1.078125,5.9023438-3.2265625,8.0488281	C90.8945312,90.8544922,88.1279297,92,85.1865234,92z"/><path fill="#D9EEFF" d="M83.5,29.0849991v44.4256363C83.5,75.1676331,82.1569977,80.5,80.5,80.5h-65 c-1.6569996,0-3-1.3430023-3-3V28.7229996L83.5,29.0849991z"/><path fill="#9AA2E6" d="M80.5,17.5h-65c-1.6569996,0-3,1.3430004-3,3V31h71V20.5C83.5,18.8430004,82.1569977,17.5,80.5,17.5z"/><rect width="46" height="2.938" x="29" y="38" fill="#2785BD"/><rect width="2.937" height="2.938" x="21" y="38" fill="#2785BD"/><rect width="33.149" height="2.938" x="29" y="46" fill="#2785BD"/><rect width="2.937" height="2.938" x="21" y="46" fill="#2785BD"/><rect width="46" height="2.938" x="29" y="54" fill="#2785BD"/><rect width="2.937" height="2.938" x="21" y="54" fill="#2785BD"/><rect width="46" height="2.938" x="29" y="62" fill="#2785BD"/><rect width="2.937" height="2.938" x="21" y="62" fill="#2785BD"/><rect width="44.25" height="2.938" x="29" y="70" fill="#2785BD"/><rect width="2.937" height="2.938" x="21" y="70" fill="#2785BD"/><path fill="#D9EEFF" d="M26.9759769,23h0.0000038c1.1045685,0,1.9999981,0.8954296,1.9999981,1.9999981v0.0000038 C28.9759789,26.1045704,28.0805492,27,26.9759808,27h-0.0000038c-1.1045685,0-1.9999981-0.8954296-1.9999981-1.9999981 v-0.0000038C24.9759789,23.8954296,25.8714085,23,26.9759769,23z"/><path fill="#707CC0" d="M87.1960373,78.6911774L73.2871628,65.4046021l-3.7687759,3.7678528l13.35569,13.8327637	c0.5781479,0.6356888,1.4019852,0.9998093,2.2608414,0.9998093c0.8156128,0,1.5831299-0.3178406,2.1609726-0.8950806	c0.5961151-0.5954971,0.9139557-1.3888931,0.8947754-2.2334366C88.1711884,80.0350189,87.8180237,79.2586746,87.1960373,78.6911774z"/><path fill="#2B59A1" d="M63.4215088,46.7000732c6.8881836,0,12.4721069,5.5839844,12.4721069,12.472168 c0,2.5028687-0.7445068,4.8286133-2.0136719,6.7817993l13.3161011,12.7371216 c0.6220093,0.5675049,0.9751587,1.343811,0.9946289,2.1853638c0.019165,0.8445435-0.298645,1.6378784-0.8947754,2.2333984 c-0.5778198,0.5772705-1.3453369,0.8950806-2.1610107,0.8950806c-0.8588257,0-1.6826782-0.3641357-2.2608032-0.9998169 L70.0422974,69.7284546c-1.9202271,1.2069702-4.1853027,1.9158936-6.6207886,1.9158936 c-6.8881836,0-12.4721069-5.5839844-12.4721069-12.4721069C50.9494019,52.2840576,56.5333252,46.7000732,63.4215088,46.7000732 M63.4215088,43.7000732c-8.5313721,0-15.4721069,6.9407959-15.4721069,15.472168s6.9407349,15.4721069,15.4721069,15.4721069 c2.0738525,0,4.1161499-0.4192505,6.0153198-1.2255249l11.2537842,11.6439819 c1.1432495,1.2349243,2.7599487,1.9421997,4.4442749,1.9421997c1.6165771,0,3.137085-0.6295776,4.281311-1.7727661 c1.1817017-1.180481,1.8116455-2.7515869,1.7736816-4.4237671c-0.038269-1.656189-0.7272339-3.1829834-1.9411621-4.3053589 L77.5984497,65.359436c0.8519897-1.9439087,1.295166-4.0449219,1.295166-6.1871948 C78.8936157,50.6408691,71.9528809,43.7000732,63.4215088,43.7000732L63.4215088,43.7000732z"/><path fill="#FF7575" d="M19.9759769,23h0.0000038c1.1045685,0,1.9999981,0.8954296,1.9999981,1.9999981v0.0000038 C21.9759789,26.1045704,21.0805492,27,19.9759808,27h-0.0000038c-1.1045685,0-1.9999981-0.8954296-1.9999981-1.9999981 v-0.0000038C17.9759789,23.8954296,18.8714085,23,19.9759769,23z"/><path fill="none" stroke="#40396E" stroke-miterlimit="10" stroke-width="3" d="M88.2337646,77.6439819L83.5,73.1472778V38	h0.0540161l0.0292969-17.5c0-1.6446533-1.3317261-2.9779053-2.9745483-2.9779053H15.4745483	C13.8317261,17.5220947,12.5,18.8553467,12.5,20.5v56.0738525c0,1.6446533,1.3317261,2.9777832,2.9745483,2.9777832	l61.9712524-0.1048584l4.3983765,4.5750732C82.6989136,84.9616699,83.9168701,85.5,85.1865845,85.5	c1.2058105,0,2.3405151-0.4699097,3.1948242-1.3233032c0.8812866-0.8803711,1.3511963-2.0533447,1.3228149-3.3019409	C89.675415,79.6306763,89.1533203,78.4829712,88.2337646,77.6439819z"/><circle cx="63.422" cy="59.172" r="12.472" fill="#70BFFF"/></svg>