<svg xmlns="http://www.w3.org/2000/svg"  viewBox="0 0 100 100" width="100px" height="100px" baseProfile="basic"><path d="M89.3447266,52l2.421875-2.421875c1.9101562-1.9101562,2.9628906-4.4521484,2.9628906-7.1572266	s-1.0527344-5.2470703-2.9619141-7.1557617c-1.9091797-1.9106445-4.4511719-2.9633789-7.1572266-2.9633789	s-5.2480469,1.0527344-7.15625,2.9624023L75.03125,37.6865234l-2.421875-2.4213867	c-1.9091797-1.9106445-4.4511719-2.9633789-7.1572266-2.9633789c-1.5285034,0-2.9996948,0.3468628-4.3388672,0.9832764V19.5	c0-3.5839844-2.9160156-6.5-6.5-6.5h-7.3300781c-3.5429688,0-6.4335938,2.8496094-6.4990234,6.3774414L23.1289062,35.0292969	h-7.5869141c-3.5839844,0-6.5,2.9160156-6.5,6.5v21.012207c0,3.5839844,2.9160156,6.5,6.5,6.5h7.5947266l17.6503906,15.5898438	c0.1132812,3.4848633,2.984375,6.2851562,6.4960938,6.2851562h7.3300781c3.5839844,0,6.5-2.9160156,6.5-6.5V70.7147827	c1.3392944,0.6365967,2.8104248,0.9834595,4.3388672,0.9834595c2.7060547,0,5.2480469-1.0527344,7.15625-2.9624023	l2.4228516-2.4223633l2.421875,2.4213867c1.9091797,1.9106445,4.4511719,2.9628906,7.1572266,2.9628906	s5.2480469-1.0522461,7.15625-2.9614258c1.9101562-1.9101562,2.9628906-4.4521484,2.9628906-7.1572266	s-1.0527344-5.2470703-2.9628906-7.1567383L89.3447266,52z" opacity=".35"/><path fill="#F2F2F2" d="M87.3447266,50l2.421875-2.421875c1.9101562-1.9101562,2.9628906-4.4521484,2.9628906-7.1572266	s-1.0527344-5.2470703-2.9619141-7.1557617c-1.9091797-1.9106445-4.4511719-2.9633789-7.1572266-2.9633789	s-5.2480469,1.0527344-7.15625,2.9624023L73.03125,35.6865234l-2.421875-2.4213867	c-1.9091797-1.9106445-4.4511719-2.9633789-7.1572266-2.9633789c-1.5285034,0-2.9996948,0.3468628-4.3388672,0.9832764V17.5	c0-3.5839844-2.9160156-6.5-6.5-6.5h-7.3300781c-3.5429688,0-6.4335938,2.8496094-6.4990234,6.3774414L21.1289062,33.0292969	h-7.5869141c-3.5839844,0-6.5,2.9160156-6.5,6.5v21.012207c0,3.5839844,2.9160156,6.5,6.5,6.5h7.5947266l17.6503906,15.5898438	c0.1132812,3.4848633,2.984375,6.2851562,6.4960938,6.2851562h7.3300781c3.5839844,0,6.5-2.9160156,6.5-6.5V68.7147827	c1.3392944,0.6365967,2.8104248,0.9834595,4.3388672,0.9834595c2.7060547,0,5.2480469-1.0527344,7.15625-2.9624023	l2.4228516-2.4223633l2.421875,2.4213867c1.9091797,1.9106445,4.4511719,2.9628906,7.1572266,2.9628906	s5.2480469-1.0522461,7.15625-2.9614258c1.9101562-1.9101562,2.9628906-4.4521484,2.9628906-7.1572266	s-1.0527344-5.2470703-2.9628906-7.1567383L87.3447266,50z"/><polygon fill="#707CC0" points="46.8542633,81.4640961 24.8654251,61.5411911 24.8654251,40.0369568 46.8542633,18.5359077"/><rect width="5.89" height="63.872" x="46.723" y="18.064" fill="#9AA2E6"/><rect width="10.471" height="21.989" x="14.395" y="39.529" fill="#9AA2E6"/><path fill="#FF7575" stroke="#40396E" stroke-linecap="round" stroke-linejoin="round" stroke-miterlimit="10" stroke-width="3" d="M85.1711273,57.0186043L78.1525192,50l7.0186081-7.0186043c1.4141769-1.4141808,1.4141312-3.7069321,0-5.121067 c-1.4141388-1.414135-3.7069321-1.414135-5.1210709,0L73.031456,44.878933l-7.0186081-7.0186043 c-1.4141312-1.414135-3.7069321-1.414135-5.121067,0c-1.4141312,1.414135-1.4141312,3.7069321,0,5.121067L67.9103851,50 l-7.0186043,7.0186043c-1.4141312,1.414135-1.4141312,3.7069321,0,5.121067c1.414135,1.414135,3.7069359,1.414135,5.121067,0 l7.0186081-7.0186043l7.0186005,7.0186043c1.4141388,1.414135,3.7069321,1.414135,5.1210709,0 C86.5853043,60.7254944,86.5852585,58.4327393,85.1711273,57.0186043z"/><polygon fill="none" stroke="#40396E" stroke-linecap="round" stroke-linejoin="round" stroke-miterlimit="10" stroke-width="3" points="45.2836342,17.5 45.2836342,20.3028221 23.5955505,39.5291252 13.541667,39.5291252 13.541667,60.5416679 23.5955505,60.5416679 45.2836342,79.6971741 45.2836342,82.4166641 52.6132469,82.4166641 52.6132469,17.5"/></svg>