<svg xmlns="http://www.w3.org/2000/svg"  viewBox="0 0 100 100" width="100px" height="100px"><path d="M79.838,20.845c-1.589-1.086-3.446-1.66-5.373-1.66c-0.767,0-1.533,0.093-2.282,0.277 c-2.625,0.649-4.854,2.391-6.118,4.779c-0.652,1.231-0.998,2.545-1.08,3.858c-2.504,0.687-4.627,2.349-5.87,4.647l-0.073,0.142 c-0.569,1.095-0.897,2.256-1.014,3.423c-0.009,0.002-0.018,0.004-0.028,0.006V21.5c0-3.584-2.916-6.5-6.5-6.5h-7.394 c-3.456,0-6.291,2.712-6.489,6.12L22.025,35H14.5C10.916,35,8,37.916,8,41.5v21c0,3.584,2.916,6.5,6.5,6.5h7.525l15.592,13.88 C37.815,86.288,40.65,89,44.106,89H51.5c3.584,0,6.5-2.916,6.5-6.5V67.68c0.025,0.005,0.05,0.011,0.076,0.016 c0.12,1.136,0.442,2.266,0.99,3.332l0.055,0.115l0.08,0.141c1.239,2.247,3.325,3.875,5.781,4.562 c0.075,1.328,0.423,2.66,1.082,3.907c1.264,2.389,3.494,4.132,6.119,4.781c0.746,0.184,1.515,0.278,2.283,0.278 c1.925,0,3.782-0.574,5.37-1.658C89.957,76.24,96,64.593,96,51.998C96,39.405,89.958,27.758,79.838,20.845z" opacity=".35"/><path fill="#f2f2f2" d="M77.838,18.845c-1.589-1.086-3.446-1.66-5.373-1.66c-0.767,0-1.533,0.093-2.282,0.277 c-2.625,0.649-4.854,2.391-6.118,4.779c-0.652,1.231-0.998,2.545-1.08,3.858c-2.504,0.687-4.627,2.349-5.87,4.647l-0.073,0.142 c-0.569,1.095-0.897,2.256-1.014,3.423c-0.009,0.002-0.018,0.004-0.028,0.006V19.5c0-3.584-2.916-6.5-6.5-6.5h-7.394 c-3.456,0-6.291,2.712-6.489,6.12L20.025,33H12.5C8.916,33,6,35.916,6,39.5v21c0,3.584,2.916,6.5,6.5,6.5h7.525l15.592,13.88 C35.815,84.288,38.65,87,42.106,87H49.5c3.584,0,6.5-2.916,6.5-6.5V65.68c0.025,0.005,0.05,0.011,0.076,0.016 c0.12,1.136,0.442,2.266,0.99,3.332l0.055,0.115l0.08,0.141c1.239,2.247,3.325,3.875,5.781,4.562 c0.075,1.328,0.423,2.66,1.082,3.907c1.264,2.389,3.494,4.132,6.119,4.781c0.746,0.184,1.515,0.278,2.283,0.278 c1.925,0,3.782-0.574,5.37-1.658C87.957,74.24,94,62.593,94,49.998C94,37.405,87.958,25.758,77.838,18.845z"/><rect width="5.904" height="61" x="43.596" y="19.5" fill="#9aa2e6"/><polygon fill="#707cc0" points="43.596,79.607 22.905,60.86 22.905,40.625 43.596,20.393"/><rect width="10.405" height="21" x="12.5" y="39.5" fill="#9aa2e6"/><path fill="#70bfff" d="M59.707,41.248c-1.719-1.301-4.206-0.471-4.751,1.615l0,0c-0.308,1.179,0.132,2.424,1.108,3.153 c1.227,0.917,1.996,2.378,1.996,3.982c0,1.604-0.769,3.065-1.997,3.983c-0.977,0.73-1.416,1.975-1.108,3.154 c0.545,2.086,3.032,2.914,4.751,1.613c2.679-2.028,4.353-5.234,4.353-8.75C64.061,46.481,62.386,43.275,59.707,41.248z"/><path fill="#40396e" d="M57.861,60.871c-0.498,0-0.999-0.082-1.483-0.25c-1.419-0.491-2.492-1.652-2.873-3.106 c-0.463-1.776,0.189-3.634,1.661-4.735c0.873-0.652,1.395-1.692,1.395-2.781c0-1.088-0.521-2.128-1.394-2.78 c-1.473-1.1-2.126-2.958-1.662-4.733c0.38-1.455,1.453-2.617,2.872-3.109c1.437-0.497,3.02-0.243,4.235,0.676l0,0 c3.099,2.345,4.948,6.063,4.948,9.946s-1.85,7.601-4.948,9.946C59.807,60.554,58.84,60.871,57.861,60.871z M57.867,42.124 c-0.169,0-0.34,0.028-0.508,0.086c-0.477,0.166-0.823,0.541-0.951,1.031c-0.154,0.59,0.063,1.207,0.554,1.574 c1.627,1.215,2.599,3.153,2.599,5.183s-0.972,3.968-2.598,5.185c-0.491,0.367-0.709,0.984-0.556,1.574 c0.128,0.489,0.476,0.865,0.952,1.03c0.491,0.171,1.02,0.086,1.442-0.234c2.354-1.782,3.759-4.605,3.759-7.554 s-1.405-5.772-3.759-7.554l0,0C58.522,42.233,58.198,42.124,57.867,42.124z"/><path fill="#70bfff" d="M67.247,32.838c-1.445-1.104-3.549-0.6-4.413,1l-0.001,0.003c-0.704,1.305-0.335,2.91,0.839,3.817 c3.787,2.927,6.056,7.461,6.056,12.34c0,4.859-2.255,9.379-6.017,12.306c-1.171,0.911-1.537,2.516-0.829,3.82l0.001,0.003 c0.868,1.598,2.973,2.097,4.415,0.989c5.269-4.049,8.431-10.345,8.431-17.117C75.728,43.199,72.547,36.887,67.247,32.838z"/><path fill="#40396e" d="M65.536,69.21c-0.309,0-0.62-0.032-0.929-0.098c-1.301-0.276-2.41-1.104-3.044-2.271 c-0.006-0.01-0.011-0.021-0.017-0.032c-1.033-1.936-0.514-4.324,1.242-5.69c3.456-2.688,5.438-6.742,5.438-11.122 c0-4.399-1.995-8.464-5.473-11.153c-1.758-1.358-2.284-3.74-1.262-5.679c0.007-0.014,0.014-0.027,0.021-0.041 c0.632-1.168,1.739-1.999,3.039-2.278c1.268-0.272,2.584,0.018,3.604,0.799l0,0c5.68,4.339,9.07,11.199,9.07,18.352 c0,7.124-3.371,13.967-9.017,18.307C67.438,68.897,66.498,69.21,65.536,69.21z M64.21,65.428c0.216,0.385,0.587,0.658,1.021,0.75 c0.242,0.052,0.712,0.087,1.152-0.252c4.912-3.775,7.845-9.729,7.845-15.928c0-6.224-2.95-12.193-7.891-15.968 c-0.001,0-0.001,0-0.001,0c-0.441-0.337-0.911-0.303-1.153-0.25c-0.432,0.093-0.801,0.365-1.016,0.748 c-0.005,0.009-0.01,0.017-0.014,0.026c-0.349,0.646-0.166,1.453,0.436,1.918c4.219,3.261,6.639,8.192,6.639,13.527 c0,5.312-2.404,10.229-6.597,13.49c-0.601,0.467-0.782,1.274-0.432,1.92C64.202,65.414,64.206,65.421,64.21,65.428z"/><g><path fill="#70bfff" d="M74.17,24.211c-1.483-1.013-3.521-0.516-4.361,1.071c-0.711,1.343-0.307,3.01,0.949,3.865 C77.444,33.703,81.5,41.466,81.5,49.998c0,8.534-4.056,16.297-10.741,20.851c-1.255,0.855-1.659,2.521-0.949,3.864 c0.84,1.588,2.877,2.085,4.36,1.072c8.297-5.667,13.33-15.264,13.33-25.788C87.5,39.476,82.467,29.879,74.17,24.211z"/><path fill="#40396e" d="M72.466,77.812c-0.362,0-0.726-0.043-1.083-0.132c-1.244-0.308-2.301-1.133-2.899-2.265 c-1.07-2.025-0.455-4.521,1.432-5.805C76.229,65.307,80,57.975,80,49.998c0-7.976-3.771-15.307-10.086-19.611 c-1.887-1.287-2.502-3.783-1.43-5.807c0.598-1.131,1.654-1.957,2.898-2.264c1.247-0.307,2.571-0.069,3.634,0.656 C83.772,28.955,89,39.058,89,49.998c0,10.941-5.228,21.045-13.984,27.026C74.259,77.542,73.367,77.812,72.466,77.812z M72.473,25.184c-0.122,0-0.246,0.015-0.37,0.045c-0.421,0.104-0.765,0.372-0.967,0.755c-0.356,0.672-0.155,1.5,0.468,1.924 C78.739,32.771,83,41.029,83,49.998c0,8.97-4.261,17.229-11.396,22.091c-0.623,0.424-0.823,1.25-0.468,1.923 c0.202,0.383,0.546,0.651,0.968,0.755c0.426,0.105,0.858,0.027,1.221-0.221C81.262,69.125,86,59.948,86,49.998 c0-9.949-4.739-19.125-12.676-24.548c-0.001,0-0.001,0-0.001,0C73.066,25.274,72.773,25.184,72.473,25.184z"/></g><g><path fill="#40396e" d="M49.5,82h-7.394c-0.828,0-1.5-0.671-1.5-1.5v-1.873L21.929,62H12.5c-0.828,0-1.5-0.671-1.5-1.5v-21 c0-0.829,0.672-1.5,1.5-1.5h9.429l18.678-16.627V19.5c0-0.829,0.672-1.5,1.5-1.5H49.5c0.828,0,1.5,0.671,1.5,1.5v61 C51,81.329,50.328,82,49.5,82z M43.606,79H48V21h-4.394v1.045c0,0.428-0.183,0.836-0.503,1.12L23.497,40.62 C23.223,40.865,22.868,41,22.5,41H14v18h8.5c0.368,0,0.723,0.135,0.997,0.38l19.606,17.455c0.32,0.284,0.503,0.692,0.503,1.12V79z"/></g></svg>