<svg xmlns="http://www.w3.org/2000/svg"  viewBox="0 0 100 100" width="200px" height="200px"><path d="M24.609,94.054c-3.584,0-6.5-2.916-6.5-6.5v-8.108c0-3.584,2.916-6.5,6.5-6.5H25v-5.355c0-6.256,3.94-12.01,9.145-15.482 L34.309,52l-0.162-0.108C28.94,48.421,25,42.559,25,36.302v-7.727h-0.391c-3.584,0-6.5-2.916-6.5-6.5v-5.629 c0-3.584,2.916-6.5,6.5-6.5h54.782c3.584,0,6.5,2.916,6.5,6.5v8.108c0,3.584-2.916,6.5-6.5,6.5H79v5.248 c0,6.257-3.108,12.065-8.315,15.536l-0.162,0.108l0.162,0.108C75.892,55.527,79,61.334,79,67.591v5.355h0.391 c3.584,0,6.5,2.916,6.5,6.5v8.108c0,3.584-2.916,6.5-6.5,6.5C79.391,94.054,24.609,94.054,24.609,94.054z" opacity=".35"/><path fill="#f2f2f2" d="M22.609,92.054c-3.584,0-6.5-2.916-6.5-6.5v-8.108c0-3.584,2.916-6.5,6.5-6.5H23v-5.355 c0-6.256,3.108-12.064,8.313-15.537l0.164-0.109l-0.162-0.108C26.108,46.367,23,40.559,23,34.302v-5.248h-0.391 c-3.584,0-6.5-2.916-6.5-6.5v-8.108c0-3.584,2.916-6.5,6.5-6.5h54.782c3.584,0,6.5,2.916,6.5,6.5v8.108c0,3.584-2.916,6.5-6.5,6.5 H77v5.248c0,6.257-3.108,12.065-8.315,15.536l-0.162,0.108l0.162,0.108C73.892,53.527,77,59.334,77,65.591v5.355h0.391 c3.584,0,6.5,2.916,6.5,6.5v8.108c0,3.584-2.916,6.5-6.5,6.5C77.391,92.054,22.609,92.054,22.609,92.054z"/><path fill="#d9eeff" d="M70.5,79V66.498c0-4.291-2.035-8.3-5.42-10.681L56.804,50l8.275-5.817 c3.386-2.381,5.42-6.388,5.42-10.68V21h-41v12.503c0,4.292,2.034,8.3,5.42,10.68L43.196,50l-8.275,5.817 c-3.386,2.381-5.42,6.39-5.42,10.681V79H70.5z"/><rect width="55" height="6" x="22" y="15" fill="#d47f56"/><rect width="55" height="7" x="22" y="79" fill="#d47f56"/><path fill="#40396e" d="M77.391,87.054H22.609c-0.829,0-1.5-0.671-1.5-1.5v-8.046c0-0.829,0.671-1.5,1.5-1.5H28V65.591 c0-4.581,2.276-8.834,6.088-11.377l6.403-4.268l-6.403-4.269C30.276,43.136,28,38.883,28,34.302V24.011h-5.391 c-0.829,0-1.5-0.671-1.5-1.5v-8.065c0-0.829,0.671-1.5,1.5-1.5h54.782c0.829,0,1.5,0.671,1.5,1.5v8.065c0,0.829-0.671,1.5-1.5,1.5 H72v10.291c0,4.582-2.276,8.834-6.088,11.375l-6.403,4.269l6.403,4.268C69.724,56.757,72,61.01,72,65.591v10.42h5.391 c0.829,0,1.5,0.671,1.5,1.5v8.043C78.891,86.383,78.22,87.054,77.391,87.054z M24.109,84.054h51.782v-5.043H70.5 c-0.829,0-1.5-0.671-1.5-1.5v-11.92c0-3.576-1.777-6.896-4.753-8.881l-8.275-5.516c-0.417-0.278-0.668-0.747-0.668-1.248 s0.25-0.97,0.668-1.248l8.275-5.517C67.224,41.197,69,37.878,69,34.302V22.511c0-0.829,0.671-1.5,1.5-1.5h5.391v-5.065H24.109 v5.065H29.5c0.829,0,1.5,0.671,1.5,1.5v11.791c0,3.576,1.776,6.896,4.752,8.879l8.275,5.517c0.417,0.278,0.668,0.747,0.668,1.248 s-0.25,0.97-0.668,1.248l-8.275,5.516C32.777,58.695,31,62.015,31,65.591v11.917c0,0.829-0.671,1.5-1.5,1.5h-5.391L24.109,84.054z"/><path fill="#f9b84f" d="M34,79V66.499c0-2.675,1.272-5.14,3.403-6.591L50,51.329l12.598,8.579 C64.728,61.359,66,63.823,66,66.499V79H34z"/></svg>