<svg xmlns="http://www.w3.org/2000/svg"  viewBox="0 0 100 100" width="100px" height="100px"><path d="M86.03,66.85c-0.38-0.38-0.82-0.83-1.34-1.35l3.41-3.4c2.53-2.54,2.53-6.66,0-9.2 c-1.23-1.22-2.86-1.9-4.6-1.9c-1.45,0-2.83,0.47-3.96,1.35l-5.91-5.91l9.53-9.78c1.2-1.24,1.87-2.93,1.84-4.65l-0.18-10.53 c-0.03-1.79-0.81-3.51-2.14-4.71c-1.2-1.08-2.75-1.68-4.38-1.68c-0.14,0-0.29,0.01-0.43,0.02h-0.09l-10.82,0.91 c-1.45,0.12-2.82,0.73-3.88,1.71l-9.41,8.74L44.1,16.9c-1.23-1.22-2.86-1.9-4.6-1.9l-10.44-0.01h-0.01c-1.73,0-3.31,0.68-4.48,1.79 c-1.17,1.11-1.93,2.66-2.01,4.39l-0.55,11.01c-0.09,1.83,0.6,3.62,1.89,4.92l9.41,9.4l-5.85,5.85C26.33,51.47,24.95,51,23.5,51 c-1.74,0-3.37,0.68-4.6,1.9c-2.53,2.54-2.53,6.66,0,9.2l3.25,3.24l-1.49,1.53c-6.29,0.41-11.28,5.66-11.28,12.05 C9.38,85.58,14.8,91,21.46,91c6.3,0,11.48-4.84,12.03-11l1.64-1.68l2.77,2.78c1.23,1.22,2.86,1.9,4.6,1.9s3.37-0.68,4.6-1.9 c2.33-2.34,2.51-6.01,0.55-8.56l5.85-5.85l5.85,5.85c-1.96,2.55-1.78,6.22,0.55,8.56c1.23,1.22,2.86,1.9,4.6,1.9s3.37-0.68,4.6-1.9 l2.53-2.53c0.71,0.67,1.31,1.24,1.83,1.72c0.68,6.02,5.8,10.71,12,10.71c6.66,0,12.08-5.42,12.08-12.08 C97.54,72.45,92.43,67.15,86.03,66.85z M85.46,86c-3.9,0-7.08-3.18-7.08-7.08c0-0.27,0.02-0.55,0.05-0.83 c-0.86-0.8-2.73-2.56-6.9-6.5l-5.97,5.97C65.27,77.85,64.88,78,64.5,78s-0.77-0.15-1.06-0.44c-0.59-0.59-0.59-1.53,0-2.12 l2.94-2.94L53.5,59.62L40.62,72.5l2.94,2.94c0.59,0.59,0.59,1.53,0,2.12C43.27,77.85,42.88,78,42.5,78s-0.77-0.15-1.06-0.44 l-6.36-6.36l-6.6,6.79c0.04,0.31,0.06,0.62,0.06,0.93c0,3.9-3.18,7.08-7.08,7.08c-3.9,0-7.08-3.18-7.08-7.08s3.18-7.08,7.08-7.08 c0.41,0,0.83,0.04,1.23,0.11l6.48-6.66l-6.73-6.73c-0.59-0.59-0.59-1.53,0-2.12C22.73,56.15,23.12,56,23.5,56s0.77,0.15,1.06,0.44 l2.94,2.94L40.38,46.5L27.44,33.56c-0.3-0.3-0.46-0.71-0.44-1.14l0.55-11c0.04-0.8,0.7-1.43,1.5-1.43L39.5,20 c0.4,0,0.78,0.16,1.06,0.44l12.98,12.98L66.48,21.4c0.25-0.23,0.56-0.37,0.89-0.4l10.82-0.91h0.11c0.38,0,0.74,0.13,1.03,0.39 c0.3,0.28,0.48,0.67,0.49,1.08L80,32.1c0.01,0.4-0.15,0.78-0.43,1.07L66.61,46.49L79.5,59.38l2.94-2.94 C82.73,56.15,83.12,56,83.5,56s0.77,0.15,1.06,0.44c0.59,0.59,0.59,1.53,0,2.12l-6.94,6.94c3.84,3.85,5.62,5.63,6.45,6.48 c0.45-0.09,0.92-0.14,1.39-0.14c3.9,0,7.08,3.18,7.08,7.08S89.36,86,85.46,86z M85.46,77.34c-0.17,0-0.32,0.02-0.46,0.07 c-0.31,0.12-0.63,0.19-0.95,0.23c-0.01,0.29-0.05,0.59-0.12,0.88c-0.03,0.13-0.05,0.27-0.05,0.4c0,0.87,0.71,1.58,1.58,1.58 s1.58-0.71,1.58-1.58S86.33,77.34,85.46,77.34z M22.84,77.6c-0.31-0.02-0.62-0.09-0.92-0.19c-0.14-0.04-0.31-0.07-0.46-0.07 c-0.87,0-1.58,0.71-1.58,1.58s0.71,1.58,1.58,1.58s1.58-0.71,1.58-1.58c0-0.13-0.02-0.25-0.05-0.37 C22.9,78.24,22.85,77.92,22.84,77.6z M85.46,77.34c-0.17,0-0.32,0.02-0.46,0.07c-0.31,0.12-0.63,0.19-0.95,0.23 c-0.01,0.29-0.05,0.59-0.12,0.88c-0.03,0.13-0.05,0.27-0.05,0.4c0,0.87,0.71,1.58,1.58,1.58s1.58-0.71,1.58-1.58 S86.33,77.34,85.46,77.34z M22.84,77.6c-0.31-0.02-0.62-0.09-0.92-0.19c-0.14-0.04-0.31-0.07-0.46-0.07 c-0.87,0-1.58,0.71-1.58,1.58s0.71,1.58,1.58,1.58s1.58-0.71,1.58-1.58c0-0.13-0.02-0.25-0.05-0.37 C22.9,78.24,22.85,77.92,22.84,77.6z M85.46,77.34c-0.17,0-0.32,0.02-0.46,0.07c-0.31,0.12-0.63,0.19-0.95,0.23 c-0.01,0.29-0.05,0.59-0.12,0.88c-0.03,0.13-0.05,0.27-0.05,0.4c0,0.87,0.71,1.58,1.58,1.58s1.58-0.71,1.58-1.58 S86.33,77.34,85.46,77.34z M22.84,77.6c-0.31-0.02-0.62-0.09-0.92-0.19c-0.14-0.04-0.31-0.07-0.46-0.07 c-0.87,0-1.58,0.71-1.58,1.58s0.71,1.58,1.58,1.58s1.58-0.71,1.58-1.58c0-0.13-0.02-0.25-0.05-0.37 C22.9,78.24,22.85,77.92,22.84,77.6z" opacity=".35"/><rect width="16" height="6" x="19" y="66" fill="#f9b84f" transform="rotate(-45.001 27 69)"/><rect width="16" height="6" x="68" y="67" fill="#f9b84f" transform="rotate(45.001 76.001 70)"/><polygon fill="#707cc0" points="27,30 65,70 71,64 27.021,19.915"/><polygon fill="#9aa2e6" points="38.089,19.199 27.048,19.493 27.021,19.915 71,64 77,58"/><polygon fill="#9aa2e6" points="76.316,19.588 66,21 27,60 32,64 76.317,20.155"/><polygon fill="#707cc0" points="32,64 36.625,68.75 75.125,29.5 76.317,20.155"/><circle cx="19.275" cy="76.922" r="4.541" fill="#f9b84f"/><circle cx="83.459" cy="76.922" r="4.541" fill="#f9b84f"/><path fill="#40396e" d="M38.5,48c-0.384,0-0.768-0.146-1.061-0.439c-0.586-0.586-0.586-1.535,0-2.121l13-13 c0.586-0.586,1.535-0.586,2.121,0s0.586,1.535,0,2.121l-13,13C39.268,47.854,38.884,48,38.5,48z" opacity=".35"/><path fill="#40396e" d="M51.5,57c-0.384,0-0.768-0.146-1.061-0.439c-0.586-0.586-0.586-1.535,0-2.121l11-11 c0.586-0.586,1.535-0.586,2.121,0s0.586,1.535,0,2.121l-11,11C52.268,56.854,51.884,57,51.5,57z" opacity=".35"/><path fill="#40396e" d="M83.46,67.34c-0.16,0-0.31,0-0.47,0.01c-0.8-0.81-2.01-2.02-3.84-3.85l5.18-5.17 c0.75-0.76,1.17-1.76,1.17-2.83s-0.42-2.07-1.17-2.83c-0.76-0.75-1.76-1.17-2.83-1.17s-2.07,0.42-2.83,1.17l-1.17,1.17l-9.38-9.38 l11.25-11.55c0.74-0.76,1.15-1.8,1.13-2.85l-0.18-10.54c-0.02-1.1-0.5-2.16-1.32-2.9c-0.73-0.66-1.69-1.03-2.7-1.03 c-0.09,0-0.18,0-0.32,0.01l-10.82,0.91c-0.88,0.08-1.73,0.45-2.38,1.06L51.6,27.95L40.33,16.67c-0.76-0.75-1.76-1.17-2.83-1.17 l-10.45-0.01c-2.13,0-3.89,1.67-4,3.8L22.5,30.3c-0.05,1.13,0.37,2.23,1.17,3.03L34.84,44.5l-9.34,9.34l-1.17-1.17 c-0.76-0.75-1.76-1.17-2.83-1.17s-2.07,0.42-2.83,1.17c-0.75,0.76-1.17,1.76-1.17,2.83s0.42,2.07,1.17,2.83l4.99,4.98l-3.92,4.03 h-0.28c-5.28,0-9.58,4.3-9.58,9.58c0,5.28,4.3,9.58,9.58,9.58c5.28,0,9.57-4.29,9.58-9.56l4.06-4.18l4.57,4.57 c0.76,0.75,1.76,1.17,2.83,1.17s2.07-0.42,2.83-1.17c1.56-1.56,1.56-4.1,0-5.66l-1.17-1.17l9.34-9.34l9.34,9.34l-1.17,1.17 c-0.75,0.76-1.17,1.76-1.17,2.83s0.42,2.07,1.17,2.83c0.76,0.75,1.76,1.17,2.83,1.17s2.07-0.42,2.83-1.17l4.25-4.25 c2.1,1.98,3.44,3.25,4.3,4.06c0.12,5.18,4.37,9.36,9.58,9.36c5.28,0,9.58-4.3,9.58-9.58C93.04,71.64,88.74,67.34,83.46,67.34z M83.46,81c-2.25,0-4.08-1.83-4.08-4.08c0-0.34,0.04-0.67,0.13-1.01c0.14-0.57-0.07-1.16-0.51-1.52c-0.45-0.4-5.29-4.97-8.47-7.98 c-0.08-0.08-0.18-0.12-0.28-0.18c-0.07-0.04-0.13-0.09-0.2-0.12c-0.11-0.05-0.22-0.05-0.34-0.07C69.64,66.03,69.57,66,69.49,66 c-0.14,0-0.27,0.04-0.4,0.08c-0.05,0.01-0.11,0.01-0.16,0.03c-0.18,0.08-0.35,0.18-0.49,0.33l-1.94,1.94L52.56,54.44 C52.27,54.15,51.88,54,51.5,54s-0.77,0.15-1.06,0.44L36.51,68.37l-2.35-2.38c-0.26-0.27-0.63-0.45-0.99-0.45h-0.09 c-0.4,0-0.78,0.17-1.07,0.45l-7.92,8.15c-0.04,0.04-0.08,0.08-0.13,0.12c-0.51,0.36-0.73,1.01-0.56,1.62 c0.09,0.33,0.14,0.69,0.14,1.04c0,2.25-1.83,4.08-4.08,4.08s-4.08-1.83-4.08-4.08s1.83-4.08,4.08-4.08c0.42,0,0.86,0.07,1.26,0.2 c0.14,0.05,0.29,0.08,0.45,0.08c0.51,0,1.02-0.27,1.31-0.7l7.9-8.12c0.57-0.59,0.56-1.54-0.03-2.12l-2.72-2.69l13.93-13.93 c0.59-0.59,0.59-1.53,0-2.12L28.03,29.91l0.45-8.92l8.4,0.01l13.56,13.56C50.73,34.85,51.12,35,51.5,35c0.37,0,0.73-0.13,1.02-0.4 l13.62-12.65l8.71-0.73l0.14,8.31L61.43,43.45c-0.58,0.59-0.57,1.53,0.01,2.11L75.38,59.5l-2.94,2.94 c-0.15,0.15-0.26,0.31-0.33,0.5c-0.05,0.13-0.07,0.27-0.08,0.42C72.02,63.4,72,63.45,72,63.5c0,0.07,0.03,0.14,0.04,0.21 c0.05,0.31,0.16,0.61,0.4,0.85c3.05,3.06,7.68,7.69,8.06,8.09c0.28,0.33,0.7,0.51,1.12,0.51c0.17,0,0.35-0.03,0.52-0.09 c0.41-0.15,0.85-0.23,1.32-0.23c2.25,0,4.08,1.83,4.08,4.08S85.71,81,83.46,81z"/><path fill="#f2f2f2" d="M84.03,64.85c-0.38-0.38-0.82-0.83-1.34-1.35l3.41-3.4c2.53-2.54,2.53-6.66,0-9.2 c-1.23-1.22-2.86-1.9-4.6-1.9c-1.45,0-2.83,0.47-3.96,1.35l-5.91-5.91l9.53-9.78c1.2-1.24,1.87-2.93,1.84-4.65l-0.18-10.53 c-0.03-1.79-0.81-3.51-2.14-4.71c-1.2-1.08-2.75-1.68-4.38-1.68c-0.14,0-0.29,0.01-0.43,0.02h-0.09l-10.82,0.91 c-1.45,0.12-2.82,0.73-3.88,1.71l-9.41,8.74L42.1,14.9c-1.23-1.22-2.86-1.9-4.6-1.9l-10.44-0.01h-0.01c-1.73,0-3.31,0.68-4.48,1.79 c-1.17,1.11-1.93,2.66-2.01,4.39l-0.55,11.01c-0.09,1.83,0.6,3.62,1.89,4.92l9.41,9.4l-5.85,5.85C24.33,49.47,22.95,49,21.5,49 c-1.74,0-3.37,0.68-4.6,1.9c-2.53,2.54-2.53,6.66,0,9.2l3.25,3.24l-1.49,1.53c-6.29,0.41-11.28,5.66-11.28,12.05 C7.38,83.58,12.8,89,19.46,89c6.3,0,11.48-4.84,12.03-11l1.64-1.68l2.77,2.78c1.23,1.22,2.86,1.9,4.6,1.9s3.37-0.68,4.6-1.9 c2.33-2.34,2.51-6.01,0.55-8.56l5.85-5.85l5.85,5.85c-1.96,2.55-1.78,6.22,0.55,8.56c1.23,1.22,2.86,1.9,4.6,1.9s3.37-0.68,4.6-1.9 l2.53-2.53c0.71,0.67,1.31,1.24,1.83,1.72c0.68,6.02,5.8,10.71,12,10.71c6.66,0,12.08-5.42,12.08-12.08 C95.54,70.45,90.43,65.15,84.03,64.85z M83.46,84c-3.9,0-7.08-3.18-7.08-7.08c0-0.27,0.02-0.55,0.05-0.83 c-0.86-0.8-2.73-2.56-6.9-6.5l-5.97,5.97C63.27,75.85,62.88,76,62.5,76s-0.77-0.15-1.06-0.44c-0.59-0.59-0.59-1.53,0-2.12 l2.94-2.94L51.5,57.62L38.62,70.5l2.94,2.94c0.59,0.59,0.59,1.53,0,2.12C41.27,75.85,40.88,76,40.5,76s-0.77-0.15-1.06-0.44 l-6.36-6.36l-6.6,6.79c0.04,0.31,0.06,0.62,0.06,0.93c0,3.9-3.18,7.08-7.08,7.08c-3.9,0-7.08-3.18-7.08-7.08s3.18-7.08,7.08-7.08 c0.41,0,0.83,0.04,1.23,0.11l6.48-6.66l-6.73-6.73c-0.59-0.59-0.59-1.53,0-2.12C20.73,54.15,21.12,54,21.5,54s0.77,0.15,1.06,0.44 l2.94,2.94L38.38,44.5L25.44,31.56c-0.3-0.3-0.46-0.71-0.44-1.14l0.55-11c0.04-0.8,0.7-1.43,1.5-1.43L37.5,18 c0.4,0,0.78,0.16,1.06,0.44l12.98,12.98L64.48,19.4c0.25-0.23,0.56-0.37,0.89-0.4l10.82-0.91h0.11c0.38,0,0.74,0.13,1.03,0.39 c0.3,0.28,0.48,0.67,0.49,1.08L78,30.1c0.01,0.4-0.15,0.78-0.43,1.07L64.61,44.49L77.5,57.38l2.94-2.94 C80.73,54.15,81.12,54,81.5,54s0.77,0.15,1.06,0.44c0.59,0.59,0.59,1.53,0,2.12l-6.94,6.94c3.84,3.85,5.62,5.63,6.45,6.48 c0.45-0.09,0.92-0.14,1.39-0.14c3.9,0,7.08,3.18,7.08,7.08S87.36,84,83.46,84z"/></svg>