<svg width="276" height="235" viewBox="0 0 276 235" fill="none" xmlns="http://www.w3.org/2000/svg">
<path d="M267 73.144C267.099 70.624 269.154 60.745 271.398 52.003L271.512 51.565L271.596 51.121C273.726 40.117 270.36 28.723 262.584 20.641C256.128 13.936 247.05 10.09 237.678 10.09C235.866 10.09 234.033 10.231 232.23 10.513L231.864 10.57L231.504 10.645C218.961 13.231 202.524 16 198.039 16C192.573 15.988 181.887 13.78 172.455 11.827C161.025 9.463 150.228 7.231 141.486 7.009C140.946 6.994 140.394 6.988 139.827 6.988C130.875 6.988 119.409 8.65 108.276 10.261C99.441 11.542 89.424 12.994 83.952 13C78.42 13 61.515 11.047 48.048 9.217L47.58 9.163C46.386 9.04 45.198 8.977 44.016 8.977C34.392 8.977 25.131 13.063 18.612 20.188C11.157 28.33 8.112 39.316 10.257 50.329L10.344 50.773L10.458 51.211C12.744 60.052 14.91 70.498 14.997 73.048C15.006 76.726 12.738 85.732 11.082 92.305C8.469 102.688 6 112.489 6 121C6 129.511 8.469 139.312 11.085 149.689C12.741 156.262 15.012 165.268 15.003 168.856C14.904 171.379 12.849 181.258 10.605 190L10.491 190.438L10.407 190.882C8.277 201.886 11.643 213.28 19.416 221.359C25.884 228.082 34.947 231.934 44.283 231.934C46.032 231.934 47.796 231.799 49.524 231.532L50.331 231.403L50.7 231.316C63.213 228.739 79.5 226 83.958 226C89.151 226.012 99.822 228.265 108.393 230.074C120.396 232.606 131.733 235 141 235C150.267 235 161.604 232.606 173.607 230.074C182.178 228.262 192.846 226.012 198.045 226C202.629 226 219.105 228.805 231.738 231.4L232.455 231.529C234.195 231.802 235.968 231.937 237.729 231.937C247.053 231.937 256.113 228.082 262.584 221.356C270.363 213.271 273.705 201.769 271.527 190.588L271.44 190.144L271.329 189.7C269.16 181.309 267.096 171.373 267 168.943C266.991 165.265 269.259 156.259 270.915 149.686C273.531 139.312 276 129.511 276 121C276 112.489 273.531 102.688 270.915 92.311C269.259 85.738 266.991 76.732 267 73.144Z" fill="black" fill-opacity="0.35"/>
<path d="M261 67.156C261.099 64.636 263.154 54.757 265.398 46.015L265.512 45.577L265.596 45.133C267.726 34.129 264.36 22.735 256.584 14.653C250.128 7.948 241.05 4.102 231.678 4.102C229.866 4.102 228.033 4.243 226.23 4.525L225.864 4.582L225.504 4.657C212.961 7.243 196.524 10.012 192.039 10.012C186.573 10 175.887 7.792 166.455 5.839C155.025 3.475 144.228 1.243 135.486 1.021C134.946 1.006 134.394 1 133.827 1C124.875 1 113.409 2.662 102.276 4.273C93.441 5.554 83.424 7.006 77.952 7.012C72.42 7.012 55.515 5.059 42.048 3.229L41.58 3.175C40.386 3.052 39.198 2.989 38.016 2.989C28.392 2.989 19.131 7.075 12.612 14.2C5.157 22.342 2.112 33.328 4.257 44.341L4.344 44.785L4.458 45.223C6.747 54.073 8.913 64.516 9 67.069C9.009 70.747 6.741 79.753 5.085 86.326C2.469 96.7 0 106.501 0 115.012C0 123.523 2.469 133.324 5.085 143.701C6.741 150.274 9.009 159.28 9 162.865C8.901 165.388 6.846 175.267 4.602 184.009L4.488 184.447L4.404 184.891C2.274 195.895 5.64 207.289 13.413 215.368C19.881 222.091 28.944 225.943 38.28 225.943C40.029 225.943 41.793 225.808 43.521 225.541L44.328 225.412L44.697 225.325C57.213 222.751 73.5 220.012 77.958 220.012C83.151 220.024 93.822 222.277 102.393 224.086C114.396 226.618 125.733 229.012 135 229.012C144.267 229.012 155.604 226.618 167.607 224.086C176.178 222.274 186.846 220.024 192.045 220.012C196.629 220.012 213.105 222.817 225.738 225.412L226.455 225.541C228.195 225.814 229.968 225.949 231.729 225.949C241.053 225.949 250.113 222.094 256.584 215.368C264.363 207.283 267.705 195.781 265.527 184.6L265.44 184.156L265.329 183.712C263.16 175.321 261.096 165.385 261 162.955C260.991 159.277 263.259 150.271 264.915 143.698C267.531 133.324 270 123.523 270 115.012C270 106.501 267.531 96.7 264.915 86.323C263.259 79.75 260.991 70.744 261 67.156Z" fill="#F2F2F2"/>
<path d="M40.557 206.26C40.557 206.26 68.529 200.482 78 200.5C92.427 200.53 120.573 209.5 135 209.5C149.427 209.5 177.573 200.53 192 200.5C201.471 200.482 229.443 206.26 229.443 206.26C239.7 207.838 248.424 198.772 246.45 188.584C246.45 188.584 241.518 169.513 241.497 163C241.461 150.79 250.497 127.21 250.497 115C250.497 102.79 241.461 79.21 241.497 67C241.515 60.484 246.45 41.416 246.45 41.416C248.421 31.228 239.7 22.162 229.443 23.74C229.443 23.74 201.471 29.518 192 29.5C177.573 29.47 149.421 20.872 135 20.5C120.675 20.128 92.328 26.482 78 26.5C68.349 26.512 39.597 22.561 39.597 22.561C29.589 21.535 21.429 30.457 23.34 40.333C23.34 40.333 28.482 60.208 28.5 67C28.536 79.21 19.5 102.79 19.5 115C19.5 127.21 28.536 150.79 28.5 163C28.482 169.516 23.547 188.584 23.547 188.584C21.576 198.775 30.297 207.838 40.557 206.26Z" fill="#70BFFF"/>
<path d="M135 214C127.299 214 116.706 211.765 105.492 209.398C95.28 207.241 84.72 205.015 77.991 205C77.979 205 77.967 205 77.952 205C70.53 205 49.107 209.089 41.463 210.667C41.388 210.685 41.313 210.697 41.238 210.709C34.977 211.672 28.614 209.521 24.222 204.958C19.83 200.392 17.925 193.951 19.131 187.732C20.523 182.308 23.985 167.866 24 162.991C24.015 157.432 21.786 148.582 19.629 140.026C17.25 130.57 15 121.645 15 115C15 108.355 17.25 99.43 19.629 89.977C21.786 81.418 24.015 72.568 24 67.012C23.985 61.906 20.373 46.837 18.984 41.461C17.736 35.065 19.473 28.915 23.679 24.319C27.888 19.72 33.867 17.452 40.056 18.085C40.494 18.145 68.682 22 77.955 22C77.967 22 77.982 22 77.994 22C84.528 21.991 94.668 20.521 104.472 19.099C115.677 17.476 127.281 15.808 135.114 16.003C142.503 16.192 152.664 18.295 163.422 20.518C174.045 22.714 185.028 24.985 192.009 25C192.021 25 192.033 25 192.048 25C199.47 25 220.893 20.911 228.537 19.333C235.02 18.325 241.386 20.479 245.781 25.042C250.173 29.608 252.078 36.049 250.872 42.268C249.48 47.692 246.018 62.134 246.003 67.009C245.988 72.568 248.217 81.418 250.374 89.974C252.75 99.43 255 108.355 255 115C255 121.645 252.75 130.57 250.371 140.023C248.214 148.582 245.985 157.432 246 162.988C246.015 167.863 249.477 182.305 250.809 187.456C252.075 193.948 250.173 200.389 245.778 204.955C241.383 209.521 235.02 211.678 228.762 210.706C220.893 209.089 199.467 205 192.045 205C192.033 205 192.021 205 192.009 205C185.28 205.015 174.72 207.241 164.508 209.398C153.294 211.765 142.701 214 135 214ZM77.961 196C77.976 196 77.994 196 78.009 196C85.671 196.015 96.201 198.238 107.352 200.59C117.621 202.759 128.238 205 135 205C141.762 205 152.379 202.759 162.648 200.59C173.799 198.238 184.329 196.015 191.991 196C192.006 196 192.024 196 192.039 196C201.903 196 229.197 201.613 230.355 201.853C233.559 202.333 236.892 201.211 239.292 198.715C241.692 196.219 242.691 192.838 242.034 189.439C241.575 187.702 237.021 169.894 237 163.009C236.982 156.322 239.247 147.337 241.641 137.821C243.786 129.319 246 120.529 246 115C246 109.471 243.786 100.681 241.641 92.176C239.244 82.66 236.979 73.675 237 66.988C237.021 60.103 241.575 42.298 242.094 40.288C242.691 37.162 241.692 33.781 239.289 31.285C236.886 28.789 233.553 27.661 230.127 28.189C229.194 28.387 201.903 34 192.039 34C192.024 34 192.006 34 191.991 34C184.098 33.985 172.662 31.618 161.601 29.329C151.704 27.283 141.471 25.165 134.886 24.997C127.764 24.817 116.595 26.437 105.762 28.009C95.178 29.542 85.182 30.988 78.006 31C77.991 31 77.976 31 77.961 31C68.07 31 40.17 27.184 38.985 27.022C35.808 26.692 32.586 27.922 30.321 30.394C28.056 32.872 27.123 36.184 27.759 39.478C28.239 41.296 32.979 59.836 33.003 66.985C33.021 73.672 30.756 82.66 28.362 92.173C26.214 100.681 24 109.471 24 115C24 120.529 26.214 129.319 28.359 137.824C30.756 147.34 33.021 156.325 33 163.012C32.979 169.897 28.425 187.702 27.906 189.712C27.309 192.838 28.308 196.219 30.711 198.715C33.087 201.184 36.39 202.324 39.771 201.826C42.069 201.355 68.325 196 77.961 196Z" fill="#40396E"/>
<g clip-path="url(#clip0_38_36)">
<path opacity="0.35" d="M193.006 154.457L164.352 116.247L191.903 79.6259C195.721 74.3881 197.394 68.7076 196.743 63.2022C196.089 57.6449 193.477 52.8222 189.192 49.2497C185.105 45.8459 179.923 44.0492 174.213 44.0492C169.343 44.0492 164.914 45.3059 161.045 47.7903C157.784 49.8838 154.65 53.0005 151.733 57.0481L136.594 78.0027L121.396 57.1195C113.733 46.3178 105.009 44.0492 99.0381 44.0492C93.1 44.0492 87.8098 45.9449 83.7474 49.5286C79.6607 53.1319 77.1582 57.8768 76.5103 63.2524C75.8397 68.8032 77.4773 74.3249 81.4392 79.7476L108.833 116.215L79.7838 154.621C76.0988 159.736 74.4953 165.342 75.148 170.819C75.7992 176.385 78.4135 181.211 82.6962 184.772C86.7813 188.176 92.0228 189.974 97.8476 189.974C102.605 189.974 106.977 188.716 110.841 186.233C114.146 184.112 117.288 180.925 120.187 176.756L136.484 154.352L152.951 176.836C155.993 181.011 159.025 184.063 162.206 186.155C166.04 188.69 170.423 189.972 175.232 189.972C181.169 189.972 186.467 188.176 190.549 184.775C194.892 181.162 197.483 176.271 198.044 170.617C198.581 165.106 196.832 159.507 193.006 154.457Z" fill="black"/>
<path d="M189.767 151.214L161.113 113.004L188.664 76.3827C192.482 71.1449 194.155 65.4643 193.504 59.9589C192.849 54.4016 190.238 49.5789 185.952 46.0065C181.866 42.6027 176.684 40.8059 170.974 40.8059C166.104 40.8059 161.675 42.0627 157.805 44.547C154.545 46.6405 151.411 49.7573 148.493 53.8049L133.355 74.7595L118.157 53.8762C110.493 43.0746 101.769 40.8059 95.7988 40.8059C89.8607 40.8059 84.5706 42.7016 80.5082 46.2854C76.4215 49.8886 73.9189 54.6335 73.271 60.0092C72.6004 65.56 74.238 71.0816 78.2 76.5043L105.594 112.971L76.5446 151.378C72.8596 156.492 71.256 162.098 71.9088 167.576C72.5599 173.142 75.1742 177.968 79.4569 181.529C83.542 184.932 88.7836 186.731 94.6083 186.731C99.3656 186.731 103.737 185.472 107.602 182.99C110.906 180.869 114.049 177.682 116.948 173.513L133.245 151.109L149.711 173.592C152.753 177.768 155.786 180.82 158.967 182.912C162.801 185.446 167.184 186.729 171.993 186.729C177.93 186.729 183.228 184.932 187.31 181.532C191.652 177.919 194.244 173.028 194.804 167.374C195.342 161.863 193.593 156.264 189.767 151.214Z" fill="#F2F2F2"/>
<path d="M94.6085 176.19C91.2053 176.19 88.3999 175.268 86.1889 173.427C83.9795 171.588 82.7031 169.227 82.3646 166.349C82.0228 163.472 82.9299 160.537 85.0858 157.543L118.784 112.992L86.6165 70.1686C84.3456 67.0616 83.3834 64.0989 83.7252 61.2773C84.0637 58.4589 85.311 56.0978 87.4669 54.1989C89.6196 52.2984 92.3991 51.3481 95.8022 51.3481C100.903 51.3481 105.495 54.2297 109.577 59.9816L133.387 92.7027L157.026 59.98C159.181 56.9897 161.335 54.8005 163.489 53.4189C165.642 52.0373 168.137 51.3449 170.974 51.3449C174.261 51.3449 177.011 52.2692 179.222 54.1081C181.433 55.9503 182.708 58.3113 183.048 61.1881C183.388 64.0649 182.423 67.0584 180.158 70.1654L147.94 112.992L181.347 157.542C183.613 160.535 184.606 163.47 184.325 166.347C184.039 169.227 182.794 171.586 180.581 173.425C178.37 175.266 175.506 176.189 171.992 176.189C169.27 176.189 166.86 175.498 164.764 174.115C162.665 172.733 160.481 170.49 158.217 167.382L133.216 133.243L108.385 167.383C106.23 170.492 104.074 172.736 101.922 174.116C99.7674 175.499 97.3297 176.19 94.6085 176.19Z" fill="#70BFFF"/>
<path d="M171.993 178.623C168.797 178.623 165.915 177.789 163.427 176.146C161.061 174.59 158.714 172.191 156.255 168.815L133.222 137.365L110.349 168.815C108.057 172.125 105.652 174.612 103.232 176.164C100.692 177.796 97.7909 178.624 94.608 178.624C90.6412 178.624 87.285 177.505 84.635 175.297C81.9381 173.054 80.3621 170.138 79.9507 166.631C79.536 163.148 80.5986 159.609 83.1125 156.121L115.74 112.989L84.6723 71.6313C82.0191 68.0005 80.895 64.4265 81.3113 60.9838C81.7227 57.5686 83.2518 54.6692 85.8596 52.3713C88.4593 50.0784 91.8058 48.9141 95.8001 48.9141C101.707 48.9141 107.009 52.1638 111.556 58.5708L133.381 88.5611L155.058 58.5546C157.384 55.3292 159.78 52.913 162.179 51.3708C164.72 49.7395 167.679 48.9124 170.976 48.9124C174.826 48.9124 178.124 50.0313 180.777 52.24C183.472 54.4859 185.05 57.4 185.463 60.9059C185.876 64.3957 184.753 67.9941 182.123 71.6022L150.979 112.996L183.289 156.082C185.92 159.556 187.084 163.091 186.742 166.585C186.393 170.116 184.842 173.044 182.133 175.298C179.484 177.504 176.071 178.623 171.993 178.623ZM133.215 130.811C133.99 130.811 134.717 131.181 135.175 131.805L160.178 165.945C162.26 168.804 164.252 170.866 166.1 172.083C167.807 173.211 169.733 173.758 171.993 173.758C174.947 173.758 177.249 173.038 179.029 171.556C180.746 170.129 181.687 168.346 181.906 166.109C182.129 163.845 181.313 161.523 179.411 159.012L145.997 114.454C145.347 113.588 145.349 112.394 145.999 111.53L178.218 68.7059C180.105 66.1146 180.903 63.7405 180.636 61.4768C180.369 59.2195 179.397 57.4227 177.668 55.9811C175.887 54.4989 173.698 53.7789 170.974 53.7789C168.59 53.7789 166.571 54.3319 164.799 55.467C162.916 56.6768 160.962 58.6746 158.996 61.4038L135.355 94.1281C134.898 94.7622 134.221 95.0849 133.385 95.1351C132.61 95.1351 131.879 94.7638 131.422 94.1346L107.612 61.4119C103.961 56.2681 100.102 53.7789 95.8001 53.7789C92.985 53.7789 90.7821 54.5119 89.0716 56.0232C87.3644 57.5281 86.4055 59.3411 86.1366 61.5659C85.8725 63.747 86.6938 66.1568 88.5776 68.7335L120.727 111.533C121.378 112.401 121.376 113.596 120.72 114.463L87.021 159.011C85.2522 161.469 84.5071 163.79 84.776 166.062C85.0416 168.321 86.0118 170.117 87.7418 171.557C89.5219 173.039 91.7669 173.759 94.608 173.759C96.8757 173.759 98.8388 173.206 100.608 172.07C102.487 170.865 104.43 168.823 106.387 165.998L131.251 131.813C131.707 131.185 132.435 130.814 133.21 130.812L133.215 130.811Z" fill="#40396E"/>
</g>
<defs>
<clipPath id="clip0_38_36">
<rect width="127.152" height="150" fill="white" transform="translate(71 40)"/>
</clipPath>
</defs>
</svg>
